%TF.GenerationSoftware,KiCad,Pcbnew,8.0.1*%
%TF.CreationDate,2024-08-08T22:12:17-07:00*%
%TF.ProjectId,spi_ethernet_mcu_side,7370695f-6574-4686-9572-6e65745f6d63,rev?*%
%TF.SameCoordinates,Original*%
%TF.FileFunction,Copper,L1,Top*%
%TF.FilePolarity,Positive*%
%FSLAX46Y46*%
G04 Gerber Fmt 4.6, Leading zero omitted, Abs format (unit mm)*
G04 Created by KiCad (PCBNEW 8.0.1) date 2024-08-08 22:12:17*
%MOMM*%
%LPD*%
G01*
G04 APERTURE LIST*
G04 Aperture macros list*
%AMRoundRect*
0 Rectangle with rounded corners*
0 $1 Rounding radius*
0 $2 $3 $4 $5 $6 $7 $8 $9 X,Y pos of 4 corners*
0 Add a 4 corners polygon primitive as box body*
4,1,4,$2,$3,$4,$5,$6,$7,$8,$9,$2,$3,0*
0 Add four circle primitives for the rounded corners*
1,1,$1+$1,$2,$3*
1,1,$1+$1,$4,$5*
1,1,$1+$1,$6,$7*
1,1,$1+$1,$8,$9*
0 Add four rect primitives between the rounded corners*
20,1,$1+$1,$2,$3,$4,$5,0*
20,1,$1+$1,$4,$5,$6,$7,0*
20,1,$1+$1,$6,$7,$8,$9,0*
20,1,$1+$1,$8,$9,$2,$3,0*%
G04 Aperture macros list end*
%ADD10C,0.500000*%
%TA.AperFunction,NonConductor*%
%ADD11C,0.500000*%
%TD*%
%TA.AperFunction,ComponentPad*%
%ADD12R,1.700000X1.700000*%
%TD*%
%TA.AperFunction,SMDPad,CuDef*%
%ADD13RoundRect,0.200000X0.200000X0.275000X-0.200000X0.275000X-0.200000X-0.275000X0.200000X-0.275000X0*%
%TD*%
%TA.AperFunction,SMDPad,CuDef*%
%ADD14RoundRect,0.218750X-0.218750X-0.256250X0.218750X-0.256250X0.218750X0.256250X-0.218750X0.256250X0*%
%TD*%
%TA.AperFunction,SMDPad,CuDef*%
%ADD15RoundRect,0.200000X-0.275000X0.200000X-0.275000X-0.200000X0.275000X-0.200000X0.275000X0.200000X0*%
%TD*%
%TA.AperFunction,SMDPad,CuDef*%
%ADD16RoundRect,0.200000X0.275000X-0.200000X0.275000X0.200000X-0.275000X0.200000X-0.275000X-0.200000X0*%
%TD*%
%TA.AperFunction,SMDPad,CuDef*%
%ADD17RoundRect,0.225000X-0.225000X-0.250000X0.225000X-0.250000X0.225000X0.250000X-0.225000X0.250000X0*%
%TD*%
%TA.AperFunction,SMDPad,CuDef*%
%ADD18RoundRect,0.150000X-0.825000X-0.150000X0.825000X-0.150000X0.825000X0.150000X-0.825000X0.150000X0*%
%TD*%
%TA.AperFunction,ComponentPad*%
%ADD19C,2.700000*%
%TD*%
%TA.AperFunction,ComponentPad*%
%ADD20C,1.500000*%
%TD*%
%TA.AperFunction,ComponentPad*%
%ADD21RoundRect,0.250000X0.500000X0.500000X-0.500000X0.500000X-0.500000X-0.500000X0.500000X-0.500000X0*%
%TD*%
%TA.AperFunction,ComponentPad*%
%ADD22O,1.700000X1.700000*%
%TD*%
%TA.AperFunction,ViaPad*%
%ADD23C,0.600000*%
%TD*%
%TA.AperFunction,Conductor*%
%ADD24C,0.400000*%
%TD*%
%TA.AperFunction,Conductor*%
%ADD25C,0.254000*%
%TD*%
%TA.AperFunction,Conductor*%
%ADD26C,0.600000*%
%TD*%
%TA.AperFunction,Conductor*%
%ADD27C,0.200000*%
%TD*%
G04 APERTURE END LIST*
D10*
D11*
X146977657Y-71016567D02*
X143977657Y-71016567D01*
X146977657Y-69302281D02*
X145263371Y-70587995D01*
X143977657Y-69302281D02*
X145691942Y-71016567D01*
X146120514Y-68159424D02*
X146120514Y-66730853D01*
X146977657Y-68445138D02*
X143977657Y-67445138D01*
X143977657Y-67445138D02*
X146977657Y-66445138D01*
X146834800Y-65587995D02*
X146977657Y-65159424D01*
X146977657Y-65159424D02*
X146977657Y-64445138D01*
X146977657Y-64445138D02*
X146834800Y-64159424D01*
X146834800Y-64159424D02*
X146691942Y-64016566D01*
X146691942Y-64016566D02*
X146406228Y-63873709D01*
X146406228Y-63873709D02*
X146120514Y-63873709D01*
X146120514Y-63873709D02*
X145834800Y-64016566D01*
X145834800Y-64016566D02*
X145691942Y-64159424D01*
X145691942Y-64159424D02*
X145549085Y-64445138D01*
X145549085Y-64445138D02*
X145406228Y-65016566D01*
X145406228Y-65016566D02*
X145263371Y-65302281D01*
X145263371Y-65302281D02*
X145120514Y-65445138D01*
X145120514Y-65445138D02*
X144834800Y-65587995D01*
X144834800Y-65587995D02*
X144549085Y-65587995D01*
X144549085Y-65587995D02*
X144263371Y-65445138D01*
X144263371Y-65445138D02*
X144120514Y-65302281D01*
X144120514Y-65302281D02*
X143977657Y-65016566D01*
X143977657Y-65016566D02*
X143977657Y-64302281D01*
X143977657Y-64302281D02*
X144120514Y-63873709D01*
X146977657Y-62587995D02*
X143977657Y-62587995D01*
X143977657Y-62587995D02*
X146120514Y-61587995D01*
X146120514Y-61587995D02*
X143977657Y-60587995D01*
X143977657Y-60587995D02*
X146977657Y-60587995D01*
D12*
%TO.P,TP5,1,1*%
%TO.N,/SPI1_SCK_B*%
X145821400Y-87350600D03*
%TD*%
%TO.P,TP4,1,1*%
%TO.N,/SPI1_SCK_A*%
X143281400Y-83616800D03*
%TD*%
D13*
%TO.P,R8,1*%
%TO.N,GND*%
X116903000Y-92202000D03*
%TO.P,R8,2*%
%TO.N,Net-(D1-K)*%
X115253000Y-92202000D03*
%TD*%
D14*
%TO.P,D1,1,K*%
%TO.N,Net-(D1-K)*%
X115265000Y-90678000D03*
%TO.P,D1,2,A*%
%TO.N,+3V3*%
X116840000Y-90678000D03*
%TD*%
D15*
%TO.P,R2,1*%
%TO.N,/SPI1_SDI_A*%
X126441200Y-84607400D03*
%TO.P,R2,2*%
%TO.N,/SPI1_SDI_B*%
X126441200Y-86257400D03*
%TD*%
D16*
%TO.P,R6,1*%
%TO.N,GND*%
X138482800Y-74422000D03*
%TO.P,R6,2*%
%TO.N,Net-(J1-Pad8)*%
X138482800Y-72772000D03*
%TD*%
D12*
%TO.P,TP2,1,1*%
%TO.N,/SPI1_SDO_Z*%
X128625600Y-90373200D03*
%TD*%
%TO.P,TP1,1,1*%
%TO.N,/SPI1_SDO_Y*%
X124256800Y-93218000D03*
%TD*%
D17*
%TO.P,C2,1*%
%TO.N,+3V3*%
X135356600Y-84734400D03*
%TO.P,C2,2*%
%TO.N,GND*%
X136906600Y-84734400D03*
%TD*%
D18*
%TO.P,U1,1,VCC*%
%TO.N,+3V3*%
X119267200Y-85078800D03*
%TO.P,U1,2,RO*%
%TO.N,/SPI1_SDI*%
X119267200Y-86348800D03*
%TO.P,U1,3,DI*%
%TO.N,/SPI1_SDO*%
X119267200Y-87618800D03*
%TO.P,U1,4,GND*%
%TO.N,GND*%
X119267200Y-88888800D03*
%TO.P,U1,5,Y*%
%TO.N,/SPI1_SDO_Y*%
X124217200Y-88888800D03*
%TO.P,U1,6,Z*%
%TO.N,/SPI1_SDO_Z*%
X124217200Y-87618800D03*
%TO.P,U1,7,B*%
%TO.N,/SPI1_SDI_B*%
X124217200Y-86348800D03*
%TO.P,U1,8,A*%
%TO.N,/SPI1_SDI_A*%
X124217200Y-85078800D03*
%TD*%
D12*
%TO.P,TP9,1,1*%
%TO.N,/SPI1_SCK*%
X119354600Y-69596000D03*
%TD*%
%TO.P,TP10,1,1*%
%TO.N,/SPI1_~{CS}*%
X115544600Y-72110600D03*
%TD*%
%TO.P,TP3,1,1*%
%TO.N,/SPI1_SDI_B*%
X129082800Y-85115400D03*
%TD*%
%TO.P,TP12,1,1*%
%TO.N,/SPI1_SDI*%
X116713000Y-77216000D03*
%TD*%
%TO.P,TP11,1,1*%
%TO.N,/SPI1_SDO*%
X120370600Y-74676000D03*
%TD*%
D19*
%TO.P,J1,SH*%
%TO.N,GND*%
X138688000Y-63663400D03*
X122428000Y-63663400D03*
D20*
%TO.P,J1,12*%
%TO.N,Net-(J1-Pad12)*%
X137418000Y-69243400D03*
%TO.P,J1,11*%
%TO.N,GND*%
X135128000Y-69243400D03*
%TO.P,J1,10*%
%TO.N,+3V3*%
X125988000Y-69243400D03*
%TO.P,J1,9*%
%TO.N,Net-(J1-Pad9)*%
X123698000Y-69243400D03*
%TO.P,J1,8*%
%TO.N,Net-(J1-Pad8)*%
X134128000Y-64423400D03*
%TO.P,J1,7*%
%TO.N,Net-(J1-Pad7)*%
X133108000Y-62643400D03*
%TO.P,J1,6*%
%TO.N,/SPI1_SDI_A*%
X132088000Y-64423400D03*
%TO.P,J1,5*%
%TO.N,/SPI1_SCK_B*%
X131068000Y-62643400D03*
%TO.P,J1,4*%
%TO.N,/SPI1_SCK_A*%
X130048000Y-64423400D03*
%TO.P,J1,3*%
%TO.N,/SPI1_SDI_B*%
X129028000Y-62643400D03*
%TO.P,J1,2*%
%TO.N,/SPI1_SDO_Z*%
X128008000Y-64423400D03*
D21*
%TO.P,J1,1*%
%TO.N,/SPI1_SDO_Y*%
X126988000Y-62643400D03*
%TD*%
D15*
%TO.P,R4,1*%
%TO.N,Net-(J1-Pad7)*%
X123139200Y-72772000D03*
%TO.P,R4,2*%
%TO.N,/SPI1_~{CS}*%
X123139200Y-74422000D03*
%TD*%
D12*
%TO.P,TP6,1,1*%
%TO.N,/SPI1_SDI_A*%
X126695200Y-80822800D03*
%TD*%
D13*
%TO.P,R5,1*%
%TO.N,GND*%
X128016000Y-87757000D03*
%TO.P,R5,2*%
%TO.N,/SPI1_SDO_Z*%
X126366000Y-87757000D03*
%TD*%
D17*
%TO.P,C1,1*%
%TO.N,+3V3*%
X118770400Y-83312000D03*
%TO.P,C1,2*%
%TO.N,GND*%
X120320400Y-83312000D03*
%TD*%
D12*
%TO.P,TP8,1,1*%
%TO.N,GND*%
X135636000Y-80264000D03*
%TD*%
D15*
%TO.P,R1,1*%
%TO.N,Net-(J1-Pad12)*%
X140843000Y-72772000D03*
%TO.P,R1,2*%
%TO.N,/SPI1_SCK_A*%
X140843000Y-74422000D03*
%TD*%
D13*
%TO.P,R3,1*%
%TO.N,/SPI1_SDO_Y*%
X124192800Y-90601800D03*
%TO.P,R3,2*%
%TO.N,+3V3*%
X122542800Y-90601800D03*
%TD*%
D15*
%TO.P,R9,1*%
%TO.N,/SPI1_SCK_A*%
X142468600Y-86297000D03*
%TO.P,R9,2*%
%TO.N,/SPI1_SCK_B*%
X142468600Y-87947000D03*
%TD*%
D18*
%TO.P,U2,1,VCC*%
%TO.N,+3V3*%
X135331200Y-86436200D03*
%TO.P,U2,2,RO*%
%TO.N,/SPI1_SCK*%
X135331200Y-87706200D03*
%TO.P,U2,3,DI*%
%TO.N,GND*%
X135331200Y-88976200D03*
%TO.P,U2,4,GND*%
X135331200Y-90246200D03*
%TO.P,U2,5,Y*%
%TO.N,unconnected-(U2-Y-Pad5)*%
X140281200Y-90246200D03*
%TO.P,U2,6,Z*%
%TO.N,unconnected-(U2-Z-Pad6)*%
X140281200Y-88976200D03*
%TO.P,U2,7,B*%
%TO.N,/SPI1_SCK_B*%
X140281200Y-87706200D03*
%TO.P,U2,8,A*%
%TO.N,/SPI1_SCK_A*%
X140281200Y-86436200D03*
%TD*%
D16*
%TO.P,R7,1*%
%TO.N,/SPI1_~{CS}*%
X124688600Y-74422000D03*
%TO.P,R7,2*%
%TO.N,Net-(J1-Pad9)*%
X124688600Y-72772000D03*
%TD*%
D12*
%TO.P,J4,1,Pin_1*%
%TO.N,/SPI1_SCK*%
X110263200Y-69596000D03*
D22*
%TO.P,J4,2,Pin_2*%
%TO.N,/SPI1_~{CS}*%
X110263200Y-72136000D03*
%TO.P,J4,3,Pin_3*%
%TO.N,/SPI1_SDO*%
X110263200Y-74676000D03*
%TO.P,J4,4,Pin_4*%
%TO.N,/SPI1_SDI*%
X110263200Y-77216000D03*
%TO.P,J4,5,Pin_5*%
%TO.N,GND*%
X110263200Y-79756000D03*
%TD*%
D12*
%TO.P,J3,1,Pin_1*%
%TO.N,+3V3*%
X110236000Y-85085000D03*
D22*
%TO.P,J3,2,Pin_2*%
%TO.N,GND*%
X110236000Y-87625000D03*
%TD*%
D12*
%TO.P,TP7,1,1*%
%TO.N,GND*%
X136906000Y-93726000D03*
%TD*%
D23*
%TO.N,GND*%
X146032485Y-79681888D03*
%TO.N,/SPI1_SCK_B*%
X146812000Y-79502000D03*
%TO.N,GND*%
X117856000Y-92202000D03*
%TO.N,+3V3*%
X117856000Y-90678000D03*
%TO.N,/SPI1_SCK*%
X121107200Y-67843400D03*
%TO.N,+3V3*%
X134264400Y-85674200D03*
X134391400Y-84709000D03*
X121640600Y-90601800D03*
X117805200Y-80314800D03*
X117805200Y-83286600D03*
X117779800Y-85090000D03*
%TO.N,GND*%
X136804400Y-88950800D03*
X137490200Y-74422000D03*
X128770192Y-66298189D03*
X137414000Y-83820000D03*
X128930400Y-87757000D03*
X120483976Y-67341807D03*
X120650000Y-82296000D03*
X137871200Y-84734400D03*
X133310804Y-79694351D03*
X120751600Y-88888800D03*
X136804400Y-90271600D03*
X127902130Y-67831607D03*
X121285000Y-83312000D03*
%TO.N,/SPI1_SDI_A*%
X128244600Y-68554600D03*
%TO.N,/SPI1_SDI_B*%
X128219200Y-66878200D03*
%TO.N,/SPI1_SCK*%
X132511800Y-79654400D03*
%TD*%
D24*
%TO.N,Net-(J1-Pad8)*%
X133426200Y-70180200D02*
X133426200Y-65125200D01*
X136018000Y-72772000D02*
X133426200Y-70180200D01*
X138482800Y-72772000D02*
X136018000Y-72772000D01*
X133426200Y-65125200D02*
X134128000Y-64423400D01*
D25*
%TO.N,/SPI1_SCK_B*%
X145821400Y-81026000D02*
X145821400Y-87350600D01*
X146812000Y-80035400D02*
X145821400Y-81026000D01*
X146812000Y-79502000D02*
X146812000Y-80035400D01*
%TO.N,/SPI1_SCK_A*%
X138912600Y-78892400D02*
X143281400Y-83261200D01*
X140843000Y-74422000D02*
X140843000Y-76962000D01*
X132130800Y-72110600D02*
X138912600Y-78892400D01*
X140843000Y-76962000D02*
X138912600Y-78892400D01*
X143281400Y-83261200D02*
X143281400Y-83616800D01*
X132130800Y-66506200D02*
X132130800Y-72110600D01*
X130048000Y-64423400D02*
X132130800Y-66506200D01*
X143281400Y-85484200D02*
X142468600Y-86297000D01*
X143281400Y-83616800D02*
X143281400Y-85484200D01*
%TO.N,/SPI1_SCK_B*%
X145821400Y-87350600D02*
X143065000Y-87350600D01*
X143065000Y-87350600D02*
X142468600Y-87947000D01*
%TO.N,/SPI1_SCK*%
X121107200Y-67843400D02*
X119354600Y-69596000D01*
D26*
%TO.N,GND*%
X116903000Y-92202000D02*
X117856000Y-92202000D01*
%TO.N,Net-(D1-K)*%
X115265000Y-92190000D02*
X115253000Y-92202000D01*
X115265000Y-90678000D02*
X115265000Y-92190000D01*
%TO.N,+3V3*%
X116840000Y-90678000D02*
X117856000Y-90678000D01*
D25*
%TO.N,/SPI1_SDI*%
X114985800Y-84607400D02*
X116727200Y-86348800D01*
X116713000Y-77216000D02*
X114985800Y-78943200D01*
X110263200Y-77216000D02*
X116713000Y-77216000D01*
X114985800Y-78943200D02*
X114985800Y-84607400D01*
X116727200Y-86348800D02*
X119267200Y-86348800D01*
%TO.N,/SPI1_SDO*%
X121912000Y-85948999D02*
X121912000Y-77462000D01*
X121912000Y-77462000D02*
X120370600Y-75920600D01*
X120370600Y-75920600D02*
X120370600Y-74676000D01*
X120242199Y-87618800D02*
X121912000Y-85948999D01*
X119267200Y-87618800D02*
X120242199Y-87618800D01*
X110263200Y-74676000D02*
X120370600Y-74676000D01*
%TO.N,/SPI1_~{CS}*%
X120878600Y-72136000D02*
X123139200Y-74396600D01*
X115544600Y-72110600D02*
X115570000Y-72136000D01*
X115570000Y-72136000D02*
X120878600Y-72136000D01*
X123139200Y-74396600D02*
X123139200Y-74422000D01*
X123139200Y-74422000D02*
X124688600Y-74422000D01*
%TO.N,Net-(J1-Pad7)*%
X128122600Y-57658000D02*
X133108000Y-62643400D01*
X120218200Y-65379600D02*
X120218200Y-59512200D01*
X121793000Y-66954400D02*
X120218200Y-65379600D01*
X120218200Y-59512200D02*
X122072400Y-57658000D01*
X121793000Y-71425800D02*
X121793000Y-66954400D01*
X123139200Y-72772000D02*
X121793000Y-71425800D01*
X122072400Y-57658000D02*
X128122600Y-57658000D01*
%TO.N,Net-(J1-Pad9)*%
X124688600Y-72772000D02*
X123496800Y-71580200D01*
X123496800Y-71580200D02*
X123496800Y-69444600D01*
X123496800Y-69444600D02*
X123698000Y-69243400D01*
%TO.N,/SPI1_~{CS}*%
X115519200Y-72136000D02*
X115544600Y-72110600D01*
X110263200Y-72136000D02*
X115519200Y-72136000D01*
%TO.N,/SPI1_SCK*%
X110263200Y-69596000D02*
X119354600Y-69596000D01*
D26*
%TO.N,+3V3*%
X121640600Y-90601800D02*
X122542800Y-90601800D01*
D27*
%TO.N,/SPI1_SDO_Z*%
X131165600Y-87833200D02*
X128625600Y-90373200D01*
X131165600Y-67581000D02*
X131165600Y-87833200D01*
X128008000Y-64423400D02*
X131165600Y-67581000D01*
D25*
%TO.N,/SPI1_SCK*%
X134947464Y-87706200D02*
X135331200Y-87706200D01*
X132511800Y-79654400D02*
X132511800Y-85270536D01*
X132511800Y-85270536D02*
X134947464Y-87706200D01*
D27*
%TO.N,+3V3*%
X117805200Y-83286600D02*
X117805200Y-80314800D01*
D26*
%TO.N,GND*%
X120751600Y-88888800D02*
X119267200Y-88888800D01*
X128016000Y-87757000D02*
X128930400Y-87757000D01*
X137490200Y-74422000D02*
X138482800Y-74422000D01*
D24*
%TO.N,Net-(J1-Pad8)*%
X134128000Y-64423400D02*
X133934200Y-64617200D01*
%TO.N,/SPI1_SDO_Z*%
X126366000Y-87757000D02*
X126366000Y-88113600D01*
X126366000Y-88113600D02*
X128625600Y-90373200D01*
X126227800Y-87618800D02*
X126366000Y-87757000D01*
X124217200Y-87618800D02*
X126227800Y-87618800D01*
D25*
%TO.N,/SPI1_SDI_A*%
X127914400Y-79603600D02*
X126695200Y-80822800D01*
D24*
X126441200Y-81076800D02*
X126695200Y-80822800D01*
D25*
X128244600Y-68554600D02*
X127914400Y-68884800D01*
D24*
X124217200Y-85078800D02*
X125969800Y-85078800D01*
X126441200Y-84607400D02*
X126441200Y-81076800D01*
X125969800Y-85078800D02*
X126441200Y-84607400D01*
D25*
X127914400Y-68884800D02*
X127914400Y-79603600D01*
D24*
%TO.N,/SPI1_SDI_B*%
X126349800Y-86348800D02*
X126441200Y-86257400D01*
X124217200Y-86348800D02*
X126349800Y-86348800D01*
X126441200Y-86257400D02*
X127940800Y-86257400D01*
X129082800Y-85115400D02*
X129082800Y-67741800D01*
X127940800Y-86257400D02*
X129082800Y-85115400D01*
X129082800Y-67741800D02*
X128219200Y-66878200D01*
%TO.N,Net-(J1-Pad12)*%
X140843000Y-72668400D02*
X137418000Y-69243400D01*
X140843000Y-72772000D02*
X140843000Y-72668400D01*
D26*
%TO.N,/SPI1_SDO_Y*%
X124256800Y-90665800D02*
X124192800Y-90601800D01*
D27*
X127038000Y-68808475D02*
X127038000Y-76924000D01*
D26*
X124192800Y-88913200D02*
X124217200Y-88888800D01*
D27*
X127038000Y-76924000D02*
X122580400Y-81381600D01*
X126958000Y-68728475D02*
X127038000Y-68808475D01*
X126988000Y-62643400D02*
X126958000Y-62673400D01*
D26*
X124192800Y-90601800D02*
X124192800Y-88913200D01*
D27*
X123458200Y-88888800D02*
X124217200Y-88888800D01*
X122580400Y-81381600D02*
X122580400Y-88011000D01*
X126958000Y-62673400D02*
X126958000Y-68728475D01*
X122580400Y-88011000D02*
X123458200Y-88888800D01*
D26*
X124256800Y-93218000D02*
X124256800Y-90665800D01*
D24*
%TO.N,/SPI1_SCK_A*%
X140281200Y-86436200D02*
X142329400Y-86436200D01*
X142329400Y-86436200D02*
X142468600Y-86297000D01*
D25*
%TO.N,/SPI1_SCK_B*%
X142354800Y-87833200D02*
X142468600Y-87947000D01*
X140408200Y-87833200D02*
X142354800Y-87833200D01*
X140281200Y-87706200D02*
X140408200Y-87833200D01*
%TD*%
%TA.AperFunction,Conductor*%
%TO.N,+3V3*%
G36*
X119071539Y-82315685D02*
G01*
X119117294Y-82368489D01*
X119128500Y-82420000D01*
X119128500Y-82680198D01*
X119147676Y-82818107D01*
X119166135Y-82883199D01*
X119166138Y-82883207D01*
X119170988Y-82894230D01*
X119175193Y-82905160D01*
X119177561Y-82912306D01*
X119209105Y-83007502D01*
X119215399Y-83046503D01*
X119215399Y-83577495D01*
X119209105Y-83616499D01*
X119175195Y-83718833D01*
X119170987Y-83729771D01*
X119166140Y-83740784D01*
X119166138Y-83740790D01*
X119147678Y-83805883D01*
X119128500Y-83943799D01*
X119128500Y-83943804D01*
X119128500Y-84154300D01*
X119128501Y-84154309D01*
X119140052Y-84261750D01*
X119140054Y-84261762D01*
X119151260Y-84313272D01*
X119185383Y-84415797D01*
X119185386Y-84415803D01*
X119263171Y-84536837D01*
X119263179Y-84536848D01*
X119308923Y-84589640D01*
X119308926Y-84589643D01*
X119308930Y-84589647D01*
X119417664Y-84683867D01*
X119417667Y-84683868D01*
X119417668Y-84683869D01*
X119450416Y-84698825D01*
X119548541Y-84743638D01*
X119615580Y-84763323D01*
X119615584Y-84763324D01*
X119758000Y-84783800D01*
X120095190Y-84783800D01*
X120129784Y-84788723D01*
X120197868Y-84808504D01*
X120267656Y-84823529D01*
X120267657Y-84823530D01*
X120267664Y-84823531D01*
X120267669Y-84823532D01*
X120302264Y-84828456D01*
X120362636Y-84832731D01*
X120373493Y-84833500D01*
X120526000Y-84833500D01*
X120593039Y-84853185D01*
X120638794Y-84905989D01*
X120650000Y-84957500D01*
X120650000Y-85474000D01*
X120630315Y-85541039D01*
X120577511Y-85586794D01*
X120526000Y-85598000D01*
X120373495Y-85598000D01*
X120338900Y-85593076D01*
X120194773Y-85551202D01*
X120194767Y-85551201D01*
X120157901Y-85548300D01*
X120157894Y-85548300D01*
X118376506Y-85548300D01*
X118376498Y-85548300D01*
X118339632Y-85551201D01*
X118339626Y-85551202D01*
X118195500Y-85593076D01*
X118160905Y-85598000D01*
X116915181Y-85598000D01*
X116848142Y-85578315D01*
X116827500Y-85561681D01*
X116622319Y-85356500D01*
X116588834Y-85295177D01*
X116586000Y-85268819D01*
X116586000Y-82420000D01*
X116605685Y-82352961D01*
X116658489Y-82307206D01*
X116710000Y-82296000D01*
X119004500Y-82296000D01*
X119071539Y-82315685D01*
G37*
%TD.AperFunction*%
%TD*%
%TA.AperFunction,Conductor*%
%TO.N,GND*%
G36*
X137357039Y-88411685D02*
G01*
X137402794Y-88464489D01*
X137414000Y-88516000D01*
X137414000Y-91062000D01*
X137394315Y-91129039D01*
X137341511Y-91174794D01*
X137290000Y-91186000D01*
X134236000Y-91186000D01*
X134168961Y-91166315D01*
X134123206Y-91113511D01*
X134112000Y-91062000D01*
X134112000Y-88584223D01*
X134131685Y-88517184D01*
X134184489Y-88471429D01*
X134253647Y-88461485D01*
X134270590Y-88465145D01*
X134403631Y-88503798D01*
X134440506Y-88506700D01*
X134440514Y-88506700D01*
X136221886Y-88506700D01*
X136221894Y-88506700D01*
X136258769Y-88503798D01*
X136258771Y-88503797D01*
X136258773Y-88503797D01*
X136300391Y-88491705D01*
X136416598Y-88457944D01*
X136498905Y-88409268D01*
X136562026Y-88392000D01*
X137290000Y-88392000D01*
X137357039Y-88411685D01*
G37*
%TD.AperFunction*%
%TD*%
%TA.AperFunction,Conductor*%
%TO.N,+3V3*%
G36*
X135581539Y-83712685D02*
G01*
X135627294Y-83765489D01*
X135638500Y-83817000D01*
X135638500Y-83979058D01*
X135657679Y-84116977D01*
X135676139Y-84182068D01*
X135676142Y-84182078D01*
X135732220Y-84309524D01*
X135774737Y-84378455D01*
X135786902Y-84404544D01*
X135795305Y-84429902D01*
X135801599Y-84468904D01*
X135801599Y-85000667D01*
X135800957Y-85013266D01*
X135800689Y-85015890D01*
X135796649Y-85037043D01*
X135788714Y-85065092D01*
X135783686Y-85086437D01*
X135775362Y-85130417D01*
X135775362Y-85274293D01*
X135775363Y-85274297D01*
X135785307Y-85343455D01*
X135785308Y-85343460D01*
X135785309Y-85343463D01*
X135825841Y-85481501D01*
X135825844Y-85481507D01*
X135903626Y-85602537D01*
X135903634Y-85602548D01*
X135949378Y-85655340D01*
X135949381Y-85655343D01*
X135949385Y-85655347D01*
X136058119Y-85749567D01*
X136188996Y-85809338D01*
X136256035Y-85829023D01*
X136256039Y-85829024D01*
X136398455Y-85849500D01*
X136398458Y-85849500D01*
X137518600Y-85849500D01*
X137585639Y-85869185D01*
X137631394Y-85921989D01*
X137642600Y-85973500D01*
X137642600Y-86871000D01*
X137622915Y-86938039D01*
X137570111Y-86983794D01*
X137518600Y-86995000D01*
X136519076Y-86995000D01*
X136455956Y-86977732D01*
X136416598Y-86954456D01*
X136416597Y-86954455D01*
X136416596Y-86954455D01*
X136416593Y-86954454D01*
X136258773Y-86908602D01*
X136258767Y-86908601D01*
X136221901Y-86905700D01*
X136221894Y-86905700D01*
X135085745Y-86905700D01*
X135018706Y-86886015D01*
X134998064Y-86869381D01*
X133614919Y-85486236D01*
X133581434Y-85424913D01*
X133578600Y-85398555D01*
X133578600Y-83817000D01*
X133598285Y-83749961D01*
X133651089Y-83704206D01*
X133702600Y-83693000D01*
X135514500Y-83693000D01*
X135581539Y-83712685D01*
G37*
%TD.AperFunction*%
%TD*%
%TA.AperFunction,Conductor*%
%TO.N,GND*%
G36*
X138119039Y-82823685D02*
G01*
X138164794Y-82876489D01*
X138176000Y-82928000D01*
X138176000Y-85220000D01*
X138156315Y-85287039D01*
X138103511Y-85332794D01*
X138052000Y-85344000D01*
X136398455Y-85344000D01*
X136331416Y-85324315D01*
X136285661Y-85271511D01*
X136275717Y-85202353D01*
X136280747Y-85181001D01*
X136296949Y-85132108D01*
X136307100Y-85032745D01*
X136307099Y-84436056D01*
X136296949Y-84336692D01*
X136243603Y-84175703D01*
X136243599Y-84175697D01*
X136243598Y-84175694D01*
X136162462Y-84044153D01*
X136144000Y-83979056D01*
X136144000Y-82928000D01*
X136163685Y-82860961D01*
X136216489Y-82815206D01*
X136268000Y-82804000D01*
X138052000Y-82804000D01*
X138119039Y-82823685D01*
G37*
%TD.AperFunction*%
%TD*%
%TA.AperFunction,Conductor*%
%TO.N,GND*%
G36*
X121227539Y-81553685D02*
G01*
X121273294Y-81606489D01*
X121284500Y-81658000D01*
X121284500Y-84204000D01*
X121264815Y-84271039D01*
X121212011Y-84316794D01*
X121160500Y-84328000D01*
X120373495Y-84328000D01*
X120338900Y-84323076D01*
X120194773Y-84281202D01*
X120194767Y-84281201D01*
X120157901Y-84278300D01*
X120157894Y-84278300D01*
X119758000Y-84278300D01*
X119690961Y-84258615D01*
X119645206Y-84205811D01*
X119634000Y-84154300D01*
X119634000Y-83943804D01*
X119652461Y-83878707D01*
X119657403Y-83870697D01*
X119710749Y-83709708D01*
X119720900Y-83610345D01*
X119720899Y-83013656D01*
X119710749Y-82914292D01*
X119657403Y-82753303D01*
X119652460Y-82745289D01*
X119634000Y-82680194D01*
X119634000Y-81658000D01*
X119653685Y-81590961D01*
X119706489Y-81545206D01*
X119758000Y-81534000D01*
X121160500Y-81534000D01*
X121227539Y-81553685D01*
G37*
%TD.AperFunction*%
%TD*%
M02*
