%TF.GenerationSoftware,KiCad,Pcbnew,8.0.1*%
%TF.CreationDate,2024-08-08T22:12:17-07:00*%
%TF.ProjectId,spi_ethernet_mcu_side,7370695f-6574-4686-9572-6e65745f6d63,rev?*%
%TF.SameCoordinates,Original*%
%TF.FileFunction,Copper,L2,Inr*%
%TF.FilePolarity,Positive*%
%FSLAX46Y46*%
G04 Gerber Fmt 4.6, Leading zero omitted, Abs format (unit mm)*
G04 Created by KiCad (PCBNEW 8.0.1) date 2024-08-08 22:12:17*
%MOMM*%
%LPD*%
G01*
G04 APERTURE LIST*
G04 Aperture macros list*
%AMRoundRect*
0 Rectangle with rounded corners*
0 $1 Rounding radius*
0 $2 $3 $4 $5 $6 $7 $8 $9 X,Y pos of 4 corners*
0 Add a 4 corners polygon primitive as box body*
4,1,4,$2,$3,$4,$5,$6,$7,$8,$9,$2,$3,0*
0 Add four circle primitives for the rounded corners*
1,1,$1+$1,$2,$3*
1,1,$1+$1,$4,$5*
1,1,$1+$1,$6,$7*
1,1,$1+$1,$8,$9*
0 Add four rect primitives between the rounded corners*
20,1,$1+$1,$2,$3,$4,$5,0*
20,1,$1+$1,$4,$5,$6,$7,0*
20,1,$1+$1,$6,$7,$8,$9,0*
20,1,$1+$1,$8,$9,$2,$3,0*%
G04 Aperture macros list end*
%TA.AperFunction,ComponentPad*%
%ADD10R,1.700000X1.700000*%
%TD*%
%TA.AperFunction,ComponentPad*%
%ADD11C,2.700000*%
%TD*%
%TA.AperFunction,ComponentPad*%
%ADD12C,1.500000*%
%TD*%
%TA.AperFunction,ComponentPad*%
%ADD13RoundRect,0.250000X0.500000X0.500000X-0.500000X0.500000X-0.500000X-0.500000X0.500000X-0.500000X0*%
%TD*%
%TA.AperFunction,ComponentPad*%
%ADD14O,1.700000X1.700000*%
%TD*%
%TA.AperFunction,ViaPad*%
%ADD15C,0.600000*%
%TD*%
G04 APERTURE END LIST*
D10*
%TO.N,/SPI1_SCK_B*%
%TO.C,TP5*%
X145821400Y-87350600D03*
%TD*%
%TO.N,/SPI1_SCK_A*%
%TO.C,TP4*%
X143281400Y-83616800D03*
%TD*%
%TO.N,/SPI1_SDO_Z*%
%TO.C,TP2*%
X128625600Y-90373200D03*
%TD*%
%TO.N,/SPI1_SDO_Y*%
%TO.C,TP1*%
X124256800Y-93218000D03*
%TD*%
%TO.N,/SPI1_SCK*%
%TO.C,TP9*%
X119354600Y-69596000D03*
%TD*%
%TO.N,/SPI1_~{CS}*%
%TO.C,TP10*%
X115544600Y-72110600D03*
%TD*%
%TO.N,/SPI1_SDI_B*%
%TO.C,TP3*%
X129082800Y-85115400D03*
%TD*%
%TO.N,/SPI1_SDI*%
%TO.C,TP12*%
X116713000Y-77216000D03*
%TD*%
%TO.N,/SPI1_SDO*%
%TO.C,TP11*%
X120370600Y-74676000D03*
%TD*%
D11*
%TO.N,GND*%
%TO.C,J1*%
X138688000Y-63663400D03*
X122428000Y-63663400D03*
D12*
%TO.N,Net-(J1-Pad12)*%
X137418000Y-69243400D03*
%TO.N,GND*%
X135128000Y-69243400D03*
%TO.N,+3V3*%
X125988000Y-69243400D03*
%TO.N,Net-(J1-Pad9)*%
X123698000Y-69243400D03*
%TO.N,Net-(J1-Pad8)*%
X134128000Y-64423400D03*
%TO.N,Net-(J1-Pad7)*%
X133108000Y-62643400D03*
%TO.N,/SPI1_SDI_A*%
X132088000Y-64423400D03*
%TO.N,/SPI1_SCK_B*%
X131068000Y-62643400D03*
%TO.N,/SPI1_SCK_A*%
X130048000Y-64423400D03*
%TO.N,/SPI1_SDI_B*%
X129028000Y-62643400D03*
%TO.N,/SPI1_SDO_Z*%
X128008000Y-64423400D03*
D13*
%TO.N,/SPI1_SDO_Y*%
X126988000Y-62643400D03*
%TD*%
D10*
%TO.N,/SPI1_SDI_A*%
%TO.C,TP6*%
X126695200Y-80822800D03*
%TD*%
%TO.N,GND*%
%TO.C,TP8*%
X135636000Y-80264000D03*
%TD*%
%TO.N,/SPI1_SCK*%
%TO.C,J4*%
X110263200Y-69596000D03*
D14*
%TO.N,/SPI1_~{CS}*%
X110263200Y-72136000D03*
%TO.N,/SPI1_SDO*%
X110263200Y-74676000D03*
%TO.N,/SPI1_SDI*%
X110263200Y-77216000D03*
%TO.N,GND*%
X110263200Y-79756000D03*
%TD*%
D10*
%TO.N,+3V3*%
%TO.C,J3*%
X110236000Y-85085000D03*
D14*
%TO.N,GND*%
X110236000Y-87625000D03*
%TD*%
D10*
%TO.N,GND*%
%TO.C,TP7*%
X136906000Y-93726000D03*
%TD*%
D15*
%TO.N,GND*%
X146032485Y-79681888D03*
%TO.N,/SPI1_SCK_B*%
X146812000Y-79502000D03*
%TO.N,GND*%
X117856000Y-92202000D03*
%TO.N,+3V3*%
X117856000Y-90678000D03*
%TO.N,/SPI1_SCK*%
X121107200Y-67843400D03*
%TO.N,+3V3*%
X134264400Y-85674200D03*
X134391400Y-84709000D03*
X121640600Y-90601800D03*
X117805200Y-80314800D03*
X117805200Y-83286600D03*
X117779800Y-85090000D03*
%TO.N,GND*%
X136804400Y-88950800D03*
X137490200Y-74422000D03*
X128770192Y-66298189D03*
X137414000Y-83820000D03*
X128930400Y-87757000D03*
X120483976Y-67341807D03*
X120650000Y-82296000D03*
X137871200Y-84734400D03*
X133310804Y-79694351D03*
X120751600Y-88888800D03*
X136804400Y-90271600D03*
X127902130Y-67831607D03*
X121285000Y-83312000D03*
%TO.N,/SPI1_SDI_A*%
X128244600Y-68554600D03*
%TO.N,/SPI1_SDI_B*%
X128219200Y-66878200D03*
%TO.N,/SPI1_SCK*%
X132511800Y-79654400D03*
%TD*%
%TA.AperFunction,Conductor*%
%TO.N,GND*%
G36*
X148032539Y-54876185D02*
G01*
X148078294Y-54928989D01*
X148089500Y-54980500D01*
X148089500Y-95641500D01*
X148069815Y-95708539D01*
X148017011Y-95754294D01*
X147965500Y-95765500D01*
X108828500Y-95765500D01*
X108761461Y-95745815D01*
X108715706Y-95693011D01*
X108704500Y-95641500D01*
X108704500Y-94623844D01*
X135556000Y-94623844D01*
X135562401Y-94683372D01*
X135562403Y-94683379D01*
X135612645Y-94818086D01*
X135612649Y-94818093D01*
X135698809Y-94933187D01*
X135698812Y-94933190D01*
X135813906Y-95019350D01*
X135813913Y-95019354D01*
X135948620Y-95069596D01*
X135948627Y-95069598D01*
X136008155Y-95075999D01*
X136008172Y-95076000D01*
X136656000Y-95076000D01*
X136656000Y-94159012D01*
X136713007Y-94191925D01*
X136840174Y-94226000D01*
X136971826Y-94226000D01*
X137098993Y-94191925D01*
X137156000Y-94159012D01*
X137156000Y-95076000D01*
X137803828Y-95076000D01*
X137803844Y-95075999D01*
X137863372Y-95069598D01*
X137863379Y-95069596D01*
X137998086Y-95019354D01*
X137998093Y-95019350D01*
X138113187Y-94933190D01*
X138113190Y-94933187D01*
X138199350Y-94818093D01*
X138199354Y-94818086D01*
X138249596Y-94683379D01*
X138249598Y-94683372D01*
X138255999Y-94623844D01*
X138256000Y-94623827D01*
X138256000Y-93976000D01*
X137339012Y-93976000D01*
X137371925Y-93918993D01*
X137406000Y-93791826D01*
X137406000Y-93660174D01*
X137371925Y-93533007D01*
X137339012Y-93476000D01*
X138256000Y-93476000D01*
X138256000Y-93070286D01*
X144445500Y-93070286D01*
X144475559Y-93260075D01*
X144478754Y-93280243D01*
X144493589Y-93325901D01*
X144544444Y-93482414D01*
X144640951Y-93671820D01*
X144765890Y-93843786D01*
X144916213Y-93994109D01*
X145088179Y-94119048D01*
X145088181Y-94119049D01*
X145088184Y-94119051D01*
X145277588Y-94215557D01*
X145479757Y-94281246D01*
X145689713Y-94314500D01*
X145689714Y-94314500D01*
X145902286Y-94314500D01*
X145902287Y-94314500D01*
X146112243Y-94281246D01*
X146314412Y-94215557D01*
X146503816Y-94119051D01*
X146525789Y-94103086D01*
X146675786Y-93994109D01*
X146675788Y-93994106D01*
X146675792Y-93994104D01*
X146826104Y-93843792D01*
X146826106Y-93843788D01*
X146826109Y-93843786D01*
X146951048Y-93671820D01*
X146951047Y-93671820D01*
X146951051Y-93671816D01*
X147047557Y-93482412D01*
X147113246Y-93280243D01*
X147146500Y-93070287D01*
X147146500Y-92857713D01*
X147113246Y-92647757D01*
X147047557Y-92445588D01*
X146951051Y-92256184D01*
X146951049Y-92256181D01*
X146951048Y-92256179D01*
X146826109Y-92084213D01*
X146675786Y-91933890D01*
X146503820Y-91808951D01*
X146314414Y-91712444D01*
X146314413Y-91712443D01*
X146314412Y-91712443D01*
X146112243Y-91646754D01*
X146112241Y-91646753D01*
X146112240Y-91646753D01*
X145950957Y-91621208D01*
X145902287Y-91613500D01*
X145689713Y-91613500D01*
X145641042Y-91621208D01*
X145479760Y-91646753D01*
X145277585Y-91712444D01*
X145088179Y-91808951D01*
X144916213Y-91933890D01*
X144765890Y-92084213D01*
X144640951Y-92256179D01*
X144544444Y-92445585D01*
X144478753Y-92647760D01*
X144445500Y-92857713D01*
X144445500Y-93070286D01*
X138256000Y-93070286D01*
X138256000Y-92828172D01*
X138255999Y-92828155D01*
X138249598Y-92768627D01*
X138249596Y-92768620D01*
X138199354Y-92633913D01*
X138199350Y-92633906D01*
X138113190Y-92518812D01*
X138113187Y-92518809D01*
X137998093Y-92432649D01*
X137998086Y-92432645D01*
X137863379Y-92382403D01*
X137863372Y-92382401D01*
X137803844Y-92376000D01*
X137156000Y-92376000D01*
X137156000Y-93292988D01*
X137098993Y-93260075D01*
X136971826Y-93226000D01*
X136840174Y-93226000D01*
X136713007Y-93260075D01*
X136656000Y-93292988D01*
X136656000Y-92376000D01*
X136008155Y-92376000D01*
X135948627Y-92382401D01*
X135948620Y-92382403D01*
X135813913Y-92432645D01*
X135813906Y-92432649D01*
X135698812Y-92518809D01*
X135698809Y-92518812D01*
X135612649Y-92633906D01*
X135612645Y-92633913D01*
X135562403Y-92768620D01*
X135562401Y-92768627D01*
X135556000Y-92828155D01*
X135556000Y-93476000D01*
X136472988Y-93476000D01*
X136440075Y-93533007D01*
X136406000Y-93660174D01*
X136406000Y-93791826D01*
X136440075Y-93918993D01*
X136472988Y-93976000D01*
X135556000Y-93976000D01*
X135556000Y-94623844D01*
X108704500Y-94623844D01*
X108704500Y-93070286D01*
X109901500Y-93070286D01*
X109931559Y-93260075D01*
X109934754Y-93280243D01*
X109949589Y-93325901D01*
X110000444Y-93482414D01*
X110096951Y-93671820D01*
X110221890Y-93843786D01*
X110372213Y-93994109D01*
X110544179Y-94119048D01*
X110544181Y-94119049D01*
X110544184Y-94119051D01*
X110733588Y-94215557D01*
X110935757Y-94281246D01*
X111145713Y-94314500D01*
X111145714Y-94314500D01*
X111358286Y-94314500D01*
X111358287Y-94314500D01*
X111568243Y-94281246D01*
X111770412Y-94215557D01*
X111959816Y-94119051D01*
X111964194Y-94115870D01*
X122906300Y-94115870D01*
X122906301Y-94115876D01*
X122912708Y-94175483D01*
X122963002Y-94310328D01*
X122963006Y-94310335D01*
X123049252Y-94425544D01*
X123049255Y-94425547D01*
X123164464Y-94511793D01*
X123164471Y-94511797D01*
X123299317Y-94562091D01*
X123299316Y-94562091D01*
X123306244Y-94562835D01*
X123358927Y-94568500D01*
X125154672Y-94568499D01*
X125214283Y-94562091D01*
X125349131Y-94511796D01*
X125464346Y-94425546D01*
X125550596Y-94310331D01*
X125600891Y-94175483D01*
X125607300Y-94115873D01*
X125607299Y-92320128D01*
X125600891Y-92260517D01*
X125550596Y-92125669D01*
X125550595Y-92125668D01*
X125550593Y-92125664D01*
X125464347Y-92010455D01*
X125464344Y-92010452D01*
X125349135Y-91924206D01*
X125349128Y-91924202D01*
X125214282Y-91873908D01*
X125214283Y-91873908D01*
X125154683Y-91867501D01*
X125154681Y-91867500D01*
X125154673Y-91867500D01*
X125154664Y-91867500D01*
X123358929Y-91867500D01*
X123358923Y-91867501D01*
X123299316Y-91873908D01*
X123164471Y-91924202D01*
X123164464Y-91924206D01*
X123049255Y-92010452D01*
X123049252Y-92010455D01*
X122963006Y-92125664D01*
X122963002Y-92125671D01*
X122912708Y-92260517D01*
X122906301Y-92320116D01*
X122906301Y-92320123D01*
X122906300Y-92320135D01*
X122906300Y-94115870D01*
X111964194Y-94115870D01*
X111981789Y-94103086D01*
X112131786Y-93994109D01*
X112131788Y-93994106D01*
X112131792Y-93994104D01*
X112282104Y-93843792D01*
X112282106Y-93843788D01*
X112282109Y-93843786D01*
X112407048Y-93671820D01*
X112407047Y-93671820D01*
X112407051Y-93671816D01*
X112503557Y-93482412D01*
X112569246Y-93280243D01*
X112602500Y-93070287D01*
X112602500Y-92857713D01*
X112569246Y-92647757D01*
X112503557Y-92445588D01*
X112407051Y-92256184D01*
X112407049Y-92256181D01*
X112407048Y-92256179D01*
X112282109Y-92084213D01*
X112131786Y-91933890D01*
X111959820Y-91808951D01*
X111770414Y-91712444D01*
X111770413Y-91712443D01*
X111770412Y-91712443D01*
X111568243Y-91646754D01*
X111568241Y-91646753D01*
X111568240Y-91646753D01*
X111406957Y-91621208D01*
X111358287Y-91613500D01*
X111145713Y-91613500D01*
X111097042Y-91621208D01*
X110935760Y-91646753D01*
X110733585Y-91712444D01*
X110544179Y-91808951D01*
X110372213Y-91933890D01*
X110221890Y-92084213D01*
X110096951Y-92256179D01*
X110000444Y-92445585D01*
X109934753Y-92647760D01*
X109901500Y-92857713D01*
X109901500Y-93070286D01*
X108704500Y-93070286D01*
X108704500Y-90678003D01*
X117050435Y-90678003D01*
X117070630Y-90857249D01*
X117070631Y-90857254D01*
X117130211Y-91027523D01*
X117178304Y-91104062D01*
X117226184Y-91180262D01*
X117353738Y-91307816D01*
X117506478Y-91403789D01*
X117516698Y-91407365D01*
X117676745Y-91463368D01*
X117676750Y-91463369D01*
X117855996Y-91483565D01*
X117856000Y-91483565D01*
X117856004Y-91483565D01*
X118035249Y-91463369D01*
X118035252Y-91463368D01*
X118035255Y-91463368D01*
X118205522Y-91403789D01*
X118358262Y-91307816D01*
X118485816Y-91180262D01*
X118581789Y-91027522D01*
X118641368Y-90857255D01*
X118649954Y-90781054D01*
X118661565Y-90678003D01*
X118661565Y-90677996D01*
X118652980Y-90601803D01*
X120835035Y-90601803D01*
X120855230Y-90781049D01*
X120855231Y-90781054D01*
X120914811Y-90951323D01*
X120962691Y-91027523D01*
X121010784Y-91104062D01*
X121138338Y-91231616D01*
X121291078Y-91327589D01*
X121461345Y-91387168D01*
X121461350Y-91387169D01*
X121640596Y-91407365D01*
X121640600Y-91407365D01*
X121640604Y-91407365D01*
X121819849Y-91387169D01*
X121819852Y-91387168D01*
X121819855Y-91387168D01*
X121990122Y-91327589D01*
X122080071Y-91271070D01*
X127275100Y-91271070D01*
X127275101Y-91271076D01*
X127281508Y-91330683D01*
X127331802Y-91465528D01*
X127331806Y-91465535D01*
X127418052Y-91580744D01*
X127418055Y-91580747D01*
X127533264Y-91666993D01*
X127533271Y-91666997D01*
X127668117Y-91717291D01*
X127668116Y-91717291D01*
X127675044Y-91718035D01*
X127727727Y-91723700D01*
X129523472Y-91723699D01*
X129583083Y-91717291D01*
X129717931Y-91666996D01*
X129833146Y-91580746D01*
X129919396Y-91465531D01*
X129969691Y-91330683D01*
X129976100Y-91271073D01*
X129976099Y-89475328D01*
X129969691Y-89415717D01*
X129919396Y-89280869D01*
X129919395Y-89280868D01*
X129919393Y-89280864D01*
X129833147Y-89165655D01*
X129833144Y-89165652D01*
X129717935Y-89079406D01*
X129717928Y-89079402D01*
X129583082Y-89029108D01*
X129583083Y-89029108D01*
X129523483Y-89022701D01*
X129523481Y-89022700D01*
X129523473Y-89022700D01*
X129523464Y-89022700D01*
X127727729Y-89022700D01*
X127727723Y-89022701D01*
X127668116Y-89029108D01*
X127533271Y-89079402D01*
X127533264Y-89079406D01*
X127418055Y-89165652D01*
X127418052Y-89165655D01*
X127331806Y-89280864D01*
X127331802Y-89280871D01*
X127281508Y-89415717D01*
X127275101Y-89475316D01*
X127275101Y-89475323D01*
X127275100Y-89475335D01*
X127275100Y-91271070D01*
X122080071Y-91271070D01*
X122142862Y-91231616D01*
X122270416Y-91104062D01*
X122366389Y-90951322D01*
X122425968Y-90781055D01*
X122437579Y-90678003D01*
X122446165Y-90601803D01*
X122446165Y-90601796D01*
X122425969Y-90422550D01*
X122425968Y-90422545D01*
X122366389Y-90252278D01*
X122270416Y-90099538D01*
X122142862Y-89971984D01*
X121990123Y-89876011D01*
X121819854Y-89816431D01*
X121819849Y-89816430D01*
X121640604Y-89796235D01*
X121640596Y-89796235D01*
X121461350Y-89816430D01*
X121461345Y-89816431D01*
X121291076Y-89876011D01*
X121138337Y-89971984D01*
X121010784Y-90099537D01*
X120914811Y-90252276D01*
X120855231Y-90422545D01*
X120855230Y-90422550D01*
X120835035Y-90601796D01*
X120835035Y-90601803D01*
X118652980Y-90601803D01*
X118641369Y-90498750D01*
X118641368Y-90498745D01*
X118581788Y-90328476D01*
X118485815Y-90175737D01*
X118358262Y-90048184D01*
X118205523Y-89952211D01*
X118035254Y-89892631D01*
X118035249Y-89892630D01*
X117856004Y-89872435D01*
X117855996Y-89872435D01*
X117676750Y-89892630D01*
X117676745Y-89892631D01*
X117506476Y-89952211D01*
X117353737Y-90048184D01*
X117226184Y-90175737D01*
X117130211Y-90328476D01*
X117070631Y-90498745D01*
X117070630Y-90498750D01*
X117050435Y-90677996D01*
X117050435Y-90678003D01*
X108704500Y-90678003D01*
X108704500Y-88067239D01*
X108724185Y-88000200D01*
X108776989Y-87954445D01*
X108846147Y-87944501D01*
X108909703Y-87973526D01*
X108947477Y-88032304D01*
X108948275Y-88035146D01*
X108962566Y-88088483D01*
X108962570Y-88088492D01*
X109062399Y-88302578D01*
X109197894Y-88496082D01*
X109364917Y-88663105D01*
X109558421Y-88798600D01*
X109772507Y-88898429D01*
X109772516Y-88898433D01*
X109986000Y-88955634D01*
X109986000Y-88058012D01*
X110043007Y-88090925D01*
X110170174Y-88125000D01*
X110301826Y-88125000D01*
X110428993Y-88090925D01*
X110486000Y-88058012D01*
X110486000Y-88955633D01*
X110699483Y-88898433D01*
X110699492Y-88898429D01*
X110913578Y-88798600D01*
X111107082Y-88663105D01*
X111274105Y-88496082D01*
X111409600Y-88302578D01*
X111434831Y-88248470D01*
X144470900Y-88248470D01*
X144470901Y-88248476D01*
X144477308Y-88308083D01*
X144527602Y-88442928D01*
X144527606Y-88442935D01*
X144613852Y-88558144D01*
X144613855Y-88558147D01*
X144729064Y-88644393D01*
X144729071Y-88644397D01*
X144863917Y-88694691D01*
X144863916Y-88694691D01*
X144870844Y-88695435D01*
X144923527Y-88701100D01*
X146719272Y-88701099D01*
X146778883Y-88694691D01*
X146913731Y-88644396D01*
X147028946Y-88558146D01*
X147115196Y-88442931D01*
X147165491Y-88308083D01*
X147171900Y-88248473D01*
X147171899Y-86452728D01*
X147165491Y-86393117D01*
X147160150Y-86378798D01*
X147115197Y-86258271D01*
X147115193Y-86258264D01*
X147028947Y-86143055D01*
X147028944Y-86143052D01*
X146913735Y-86056806D01*
X146913728Y-86056802D01*
X146778882Y-86006508D01*
X146778883Y-86006508D01*
X146719283Y-86000101D01*
X146719281Y-86000100D01*
X146719273Y-86000100D01*
X146719264Y-86000100D01*
X144923529Y-86000100D01*
X144923523Y-86000101D01*
X144863916Y-86006508D01*
X144729071Y-86056802D01*
X144729064Y-86056806D01*
X144613855Y-86143052D01*
X144613852Y-86143055D01*
X144527606Y-86258264D01*
X144527602Y-86258271D01*
X144477308Y-86393117D01*
X144470901Y-86452716D01*
X144470901Y-86452723D01*
X144470900Y-86452735D01*
X144470900Y-88248470D01*
X111434831Y-88248470D01*
X111509429Y-88088492D01*
X111509432Y-88088486D01*
X111566636Y-87875000D01*
X110669012Y-87875000D01*
X110701925Y-87817993D01*
X110736000Y-87690826D01*
X110736000Y-87559174D01*
X110701925Y-87432007D01*
X110669012Y-87375000D01*
X111566636Y-87375000D01*
X111566635Y-87374999D01*
X111509432Y-87161513D01*
X111509429Y-87161507D01*
X111409600Y-86947422D01*
X111409599Y-86947420D01*
X111274113Y-86753926D01*
X111274108Y-86753920D01*
X111152053Y-86631865D01*
X111118568Y-86570542D01*
X111123552Y-86500850D01*
X111165424Y-86444917D01*
X111196400Y-86428002D01*
X111328331Y-86378796D01*
X111443546Y-86292546D01*
X111529796Y-86177331D01*
X111580091Y-86042483D01*
X111583232Y-86013270D01*
X127732300Y-86013270D01*
X127732301Y-86013276D01*
X127738708Y-86072883D01*
X127789002Y-86207728D01*
X127789006Y-86207735D01*
X127875252Y-86322944D01*
X127875255Y-86322947D01*
X127990464Y-86409193D01*
X127990471Y-86409197D01*
X128125317Y-86459491D01*
X128125316Y-86459491D01*
X128126042Y-86459569D01*
X128184927Y-86465900D01*
X129980672Y-86465899D01*
X130040283Y-86459491D01*
X130175131Y-86409196D01*
X130290346Y-86322946D01*
X130376596Y-86207731D01*
X130426891Y-86072883D01*
X130433300Y-86013273D01*
X130433300Y-85674203D01*
X133458835Y-85674203D01*
X133479030Y-85853449D01*
X133479031Y-85853454D01*
X133538611Y-86023723D01*
X133559399Y-86056806D01*
X133634584Y-86176462D01*
X133762138Y-86304016D01*
X133852480Y-86360782D01*
X133903939Y-86393116D01*
X133914878Y-86399989D01*
X134084925Y-86459491D01*
X134085145Y-86459568D01*
X134085150Y-86459569D01*
X134264396Y-86479765D01*
X134264400Y-86479765D01*
X134264404Y-86479765D01*
X134443649Y-86459569D01*
X134443652Y-86459568D01*
X134443655Y-86459568D01*
X134613922Y-86399989D01*
X134766662Y-86304016D01*
X134894216Y-86176462D01*
X134990189Y-86023722D01*
X135049768Y-85853455D01*
X135054012Y-85815788D01*
X135069965Y-85674203D01*
X135069965Y-85674196D01*
X135049769Y-85494950D01*
X135049767Y-85494940D01*
X135022860Y-85418047D01*
X134994565Y-85337186D01*
X134991003Y-85267410D01*
X135018601Y-85218083D01*
X135016875Y-85216706D01*
X135021215Y-85211263D01*
X135050210Y-85165119D01*
X135117189Y-85058522D01*
X135176768Y-84888255D01*
X135183969Y-84824344D01*
X135196965Y-84709003D01*
X135196965Y-84708996D01*
X135176769Y-84529750D01*
X135176768Y-84529745D01*
X135171493Y-84514670D01*
X141930900Y-84514670D01*
X141930901Y-84514676D01*
X141937308Y-84574283D01*
X141987602Y-84709128D01*
X141987606Y-84709135D01*
X142073852Y-84824344D01*
X142073855Y-84824347D01*
X142189064Y-84910593D01*
X142189071Y-84910597D01*
X142323917Y-84960891D01*
X142323916Y-84960891D01*
X142330844Y-84961635D01*
X142383527Y-84967300D01*
X144179272Y-84967299D01*
X144238883Y-84960891D01*
X144373731Y-84910596D01*
X144488946Y-84824346D01*
X144575196Y-84709131D01*
X144625491Y-84574283D01*
X144631900Y-84514673D01*
X144631899Y-82718928D01*
X144625491Y-82659317D01*
X144624546Y-82656784D01*
X144575197Y-82524471D01*
X144575193Y-82524464D01*
X144488947Y-82409255D01*
X144488944Y-82409252D01*
X144373735Y-82323006D01*
X144373728Y-82323002D01*
X144238882Y-82272708D01*
X144238883Y-82272708D01*
X144179283Y-82266301D01*
X144179281Y-82266300D01*
X144179273Y-82266300D01*
X144179264Y-82266300D01*
X142383529Y-82266300D01*
X142383523Y-82266301D01*
X142323916Y-82272708D01*
X142189071Y-82323002D01*
X142189064Y-82323006D01*
X142073855Y-82409252D01*
X142073852Y-82409255D01*
X141987606Y-82524464D01*
X141987602Y-82524471D01*
X141937308Y-82659317D01*
X141930901Y-82718916D01*
X141930901Y-82718923D01*
X141930900Y-82718935D01*
X141930900Y-84514670D01*
X135171493Y-84514670D01*
X135171491Y-84514664D01*
X135117189Y-84359478D01*
X135021216Y-84206738D01*
X134893662Y-84079184D01*
X134804348Y-84023064D01*
X134740923Y-83983211D01*
X134570654Y-83923631D01*
X134570649Y-83923630D01*
X134391404Y-83903435D01*
X134391396Y-83903435D01*
X134212150Y-83923630D01*
X134212145Y-83923631D01*
X134041876Y-83983211D01*
X133889137Y-84079184D01*
X133761584Y-84206737D01*
X133665611Y-84359476D01*
X133606031Y-84529745D01*
X133606030Y-84529750D01*
X133585835Y-84708996D01*
X133585835Y-84709003D01*
X133606030Y-84888249D01*
X133606032Y-84888257D01*
X133661233Y-85046013D01*
X133664794Y-85115792D01*
X133637209Y-85165119D01*
X133638928Y-85166490D01*
X133634586Y-85171934D01*
X133538611Y-85324676D01*
X133479031Y-85494945D01*
X133479030Y-85494950D01*
X133458835Y-85674196D01*
X133458835Y-85674203D01*
X130433300Y-85674203D01*
X130433299Y-84217528D01*
X130426891Y-84157917D01*
X130415552Y-84127516D01*
X130376597Y-84023071D01*
X130376593Y-84023064D01*
X130290347Y-83907855D01*
X130290344Y-83907852D01*
X130175135Y-83821606D01*
X130175128Y-83821602D01*
X130040282Y-83771308D01*
X130040283Y-83771308D01*
X129980683Y-83764901D01*
X129980681Y-83764900D01*
X129980673Y-83764900D01*
X129980664Y-83764900D01*
X128184929Y-83764900D01*
X128184923Y-83764901D01*
X128125316Y-83771308D01*
X127990471Y-83821602D01*
X127990464Y-83821606D01*
X127875255Y-83907852D01*
X127875252Y-83907855D01*
X127789006Y-84023064D01*
X127789002Y-84023071D01*
X127738708Y-84157917D01*
X127735568Y-84187127D01*
X127732301Y-84217523D01*
X127732300Y-84217535D01*
X127732300Y-86013270D01*
X111583232Y-86013270D01*
X111586500Y-85982873D01*
X111586500Y-85090003D01*
X116974235Y-85090003D01*
X116994430Y-85269249D01*
X116994431Y-85269254D01*
X117054011Y-85439523D01*
X117149984Y-85592262D01*
X117277538Y-85719816D01*
X117430278Y-85815789D01*
X117600545Y-85875368D01*
X117600550Y-85875369D01*
X117779796Y-85895565D01*
X117779800Y-85895565D01*
X117779804Y-85895565D01*
X117959049Y-85875369D01*
X117959052Y-85875368D01*
X117959055Y-85875368D01*
X118129322Y-85815789D01*
X118282062Y-85719816D01*
X118409616Y-85592262D01*
X118505589Y-85439522D01*
X118565168Y-85269255D01*
X118571702Y-85211263D01*
X118585365Y-85090003D01*
X118585365Y-85089996D01*
X118565169Y-84910750D01*
X118565168Y-84910745D01*
X118505588Y-84740476D01*
X118409615Y-84587737D01*
X118282062Y-84460184D01*
X118129323Y-84364211D01*
X117972921Y-84309484D01*
X117916145Y-84268762D01*
X117890398Y-84203809D01*
X117903854Y-84135248D01*
X117952241Y-84084845D01*
X117978055Y-84074764D01*
X117977882Y-84074268D01*
X118000436Y-84066376D01*
X118154722Y-84012389D01*
X118307462Y-83916416D01*
X118435016Y-83788862D01*
X118530989Y-83636122D01*
X118590568Y-83465855D01*
X118610765Y-83286600D01*
X118590568Y-83107345D01*
X118530989Y-82937078D01*
X118435016Y-82784338D01*
X118307462Y-82656784D01*
X118154723Y-82560811D01*
X117984454Y-82501231D01*
X117984449Y-82501230D01*
X117805204Y-82481035D01*
X117805196Y-82481035D01*
X117625950Y-82501230D01*
X117625945Y-82501231D01*
X117455676Y-82560811D01*
X117302937Y-82656784D01*
X117175384Y-82784337D01*
X117079411Y-82937076D01*
X117019831Y-83107345D01*
X117019830Y-83107350D01*
X116999635Y-83286596D01*
X116999635Y-83286603D01*
X117019830Y-83465849D01*
X117019831Y-83465854D01*
X117079411Y-83636123D01*
X117145252Y-83740908D01*
X117175384Y-83788862D01*
X117302938Y-83916416D01*
X117455678Y-84012389D01*
X117612078Y-84067115D01*
X117668853Y-84107837D01*
X117694601Y-84172789D01*
X117681145Y-84241351D01*
X117632758Y-84291754D01*
X117606944Y-84301836D01*
X117607118Y-84302332D01*
X117430276Y-84364211D01*
X117277537Y-84460184D01*
X117149984Y-84587737D01*
X117054011Y-84740476D01*
X116994431Y-84910745D01*
X116994430Y-84910750D01*
X116974235Y-85089996D01*
X116974235Y-85090003D01*
X111586500Y-85090003D01*
X111586499Y-84187128D01*
X111580091Y-84127517D01*
X111564175Y-84084845D01*
X111529797Y-83992671D01*
X111529793Y-83992664D01*
X111443547Y-83877455D01*
X111443544Y-83877452D01*
X111328335Y-83791206D01*
X111328328Y-83791202D01*
X111193482Y-83740908D01*
X111193483Y-83740908D01*
X111133883Y-83734501D01*
X111133881Y-83734500D01*
X111133873Y-83734500D01*
X111133864Y-83734500D01*
X109338129Y-83734500D01*
X109338123Y-83734501D01*
X109278516Y-83740908D01*
X109143671Y-83791202D01*
X109143664Y-83791206D01*
X109028455Y-83877452D01*
X109028452Y-83877455D01*
X108942206Y-83992664D01*
X108937953Y-84000454D01*
X108935064Y-83998876D01*
X108902792Y-84041971D01*
X108837323Y-84066376D01*
X108769052Y-84051511D01*
X108719657Y-84002096D01*
X108704500Y-83942690D01*
X108704500Y-81720670D01*
X125344700Y-81720670D01*
X125344701Y-81720676D01*
X125351108Y-81780283D01*
X125401402Y-81915128D01*
X125401406Y-81915135D01*
X125487652Y-82030344D01*
X125487655Y-82030347D01*
X125602864Y-82116593D01*
X125602871Y-82116597D01*
X125737717Y-82166891D01*
X125737716Y-82166891D01*
X125744644Y-82167635D01*
X125797327Y-82173300D01*
X127593072Y-82173299D01*
X127652683Y-82166891D01*
X127787531Y-82116596D01*
X127902746Y-82030346D01*
X127988996Y-81915131D01*
X128039291Y-81780283D01*
X128045700Y-81720673D01*
X128045700Y-81161844D01*
X134286000Y-81161844D01*
X134292401Y-81221372D01*
X134292403Y-81221379D01*
X134342645Y-81356086D01*
X134342649Y-81356093D01*
X134428809Y-81471187D01*
X134428812Y-81471190D01*
X134543906Y-81557350D01*
X134543913Y-81557354D01*
X134678620Y-81607596D01*
X134678627Y-81607598D01*
X134738155Y-81613999D01*
X134738172Y-81614000D01*
X135386000Y-81614000D01*
X135386000Y-80697012D01*
X135443007Y-80729925D01*
X135570174Y-80764000D01*
X135701826Y-80764000D01*
X135828993Y-80729925D01*
X135886000Y-80697012D01*
X135886000Y-81614000D01*
X136533828Y-81614000D01*
X136533844Y-81613999D01*
X136593372Y-81607598D01*
X136593379Y-81607596D01*
X136728086Y-81557354D01*
X136728093Y-81557350D01*
X136843187Y-81471190D01*
X136843190Y-81471187D01*
X136929350Y-81356093D01*
X136929354Y-81356086D01*
X136979596Y-81221379D01*
X136979598Y-81221372D01*
X136985999Y-81161844D01*
X136986000Y-81161827D01*
X136986000Y-80514000D01*
X136069012Y-80514000D01*
X136101925Y-80456993D01*
X136136000Y-80329826D01*
X136136000Y-80198174D01*
X136101925Y-80071007D01*
X136069012Y-80014000D01*
X136986000Y-80014000D01*
X136986000Y-79502003D01*
X146006435Y-79502003D01*
X146026630Y-79681249D01*
X146026631Y-79681254D01*
X146086211Y-79851523D01*
X146169410Y-79983932D01*
X146182184Y-80004262D01*
X146309738Y-80131816D01*
X146315673Y-80135545D01*
X146453145Y-80221925D01*
X146462478Y-80227789D01*
X146623734Y-80284215D01*
X146632745Y-80287368D01*
X146632750Y-80287369D01*
X146811996Y-80307565D01*
X146812000Y-80307565D01*
X146812004Y-80307565D01*
X146991249Y-80287369D01*
X146991252Y-80287368D01*
X146991255Y-80287368D01*
X147161522Y-80227789D01*
X147314262Y-80131816D01*
X147441816Y-80004262D01*
X147537789Y-79851522D01*
X147597368Y-79681255D01*
X147597369Y-79681249D01*
X147617565Y-79502003D01*
X147617565Y-79501996D01*
X147597369Y-79322750D01*
X147597368Y-79322745D01*
X147574013Y-79256000D01*
X147537789Y-79152478D01*
X147537575Y-79152138D01*
X147441815Y-78999737D01*
X147314262Y-78872184D01*
X147161523Y-78776211D01*
X146991254Y-78716631D01*
X146991249Y-78716630D01*
X146812004Y-78696435D01*
X146811996Y-78696435D01*
X146632750Y-78716630D01*
X146632745Y-78716631D01*
X146462476Y-78776211D01*
X146309737Y-78872184D01*
X146182184Y-78999737D01*
X146086211Y-79152476D01*
X146026631Y-79322745D01*
X146026630Y-79322750D01*
X146006435Y-79501996D01*
X146006435Y-79502003D01*
X136986000Y-79502003D01*
X136986000Y-79366172D01*
X136985999Y-79366155D01*
X136979598Y-79306627D01*
X136979596Y-79306620D01*
X136929354Y-79171913D01*
X136929350Y-79171906D01*
X136843190Y-79056812D01*
X136843187Y-79056809D01*
X136728093Y-78970649D01*
X136728086Y-78970645D01*
X136593379Y-78920403D01*
X136593372Y-78920401D01*
X136533844Y-78914000D01*
X135886000Y-78914000D01*
X135886000Y-79830988D01*
X135828993Y-79798075D01*
X135701826Y-79764000D01*
X135570174Y-79764000D01*
X135443007Y-79798075D01*
X135386000Y-79830988D01*
X135386000Y-78914000D01*
X134738155Y-78914000D01*
X134678627Y-78920401D01*
X134678620Y-78920403D01*
X134543913Y-78970645D01*
X134543906Y-78970649D01*
X134428812Y-79056809D01*
X134428809Y-79056812D01*
X134342649Y-79171906D01*
X134342645Y-79171913D01*
X134292403Y-79306620D01*
X134292401Y-79306627D01*
X134286000Y-79366155D01*
X134286000Y-80014000D01*
X135202988Y-80014000D01*
X135170075Y-80071007D01*
X135136000Y-80198174D01*
X135136000Y-80329826D01*
X135170075Y-80456993D01*
X135202988Y-80514000D01*
X134286000Y-80514000D01*
X134286000Y-81161844D01*
X128045700Y-81161844D01*
X128045699Y-79924928D01*
X128039291Y-79865317D01*
X128034146Y-79851523D01*
X127988997Y-79730471D01*
X127988993Y-79730464D01*
X127932053Y-79654403D01*
X131706235Y-79654403D01*
X131726430Y-79833649D01*
X131726431Y-79833654D01*
X131786011Y-80003923D01*
X131866372Y-80131816D01*
X131881984Y-80156662D01*
X132009538Y-80284216D01*
X132162278Y-80380189D01*
X132314855Y-80433578D01*
X132332545Y-80439768D01*
X132332550Y-80439769D01*
X132511796Y-80459965D01*
X132511800Y-80459965D01*
X132511804Y-80459965D01*
X132691049Y-80439769D01*
X132691052Y-80439768D01*
X132691055Y-80439768D01*
X132861322Y-80380189D01*
X133014062Y-80284216D01*
X133141616Y-80156662D01*
X133237589Y-80003922D01*
X133297168Y-79833655D01*
X133298501Y-79821826D01*
X133317365Y-79654403D01*
X133317365Y-79654396D01*
X133297169Y-79475150D01*
X133297168Y-79475145D01*
X133255443Y-79355901D01*
X133237589Y-79304878D01*
X133229821Y-79292516D01*
X133154037Y-79171906D01*
X133141616Y-79152138D01*
X133014062Y-79024584D01*
X132974520Y-78999738D01*
X132861323Y-78928611D01*
X132691054Y-78869031D01*
X132691049Y-78869030D01*
X132511804Y-78848835D01*
X132511796Y-78848835D01*
X132332550Y-78869030D01*
X132332545Y-78869031D01*
X132162276Y-78928611D01*
X132009537Y-79024584D01*
X131881984Y-79152137D01*
X131786011Y-79304876D01*
X131726431Y-79475145D01*
X131726430Y-79475150D01*
X131706235Y-79654396D01*
X131706235Y-79654403D01*
X127932053Y-79654403D01*
X127902747Y-79615255D01*
X127902744Y-79615252D01*
X127787535Y-79529006D01*
X127787528Y-79529002D01*
X127652682Y-79478708D01*
X127652683Y-79478708D01*
X127593083Y-79472301D01*
X127593081Y-79472300D01*
X127593073Y-79472300D01*
X127593064Y-79472300D01*
X125797329Y-79472300D01*
X125797323Y-79472301D01*
X125737716Y-79478708D01*
X125602871Y-79529002D01*
X125602864Y-79529006D01*
X125487655Y-79615252D01*
X125487652Y-79615255D01*
X125401406Y-79730464D01*
X125401402Y-79730471D01*
X125351108Y-79865317D01*
X125344701Y-79924916D01*
X125344701Y-79924923D01*
X125344700Y-79924935D01*
X125344700Y-81720670D01*
X108704500Y-81720670D01*
X108704500Y-80096726D01*
X108724185Y-80029687D01*
X108776989Y-79983932D01*
X108846147Y-79973988D01*
X108909703Y-80003013D01*
X108947477Y-80061791D01*
X108948275Y-80064633D01*
X108989766Y-80219483D01*
X108989770Y-80219492D01*
X109089599Y-80433578D01*
X109225094Y-80627082D01*
X109392117Y-80794105D01*
X109585621Y-80929600D01*
X109799707Y-81029429D01*
X109799716Y-81029433D01*
X110013200Y-81086634D01*
X110013200Y-80189012D01*
X110070207Y-80221925D01*
X110197374Y-80256000D01*
X110329026Y-80256000D01*
X110456193Y-80221925D01*
X110513200Y-80189012D01*
X110513200Y-81086633D01*
X110726683Y-81029433D01*
X110726692Y-81029429D01*
X110940778Y-80929600D01*
X111134282Y-80794105D01*
X111301305Y-80627082D01*
X111436800Y-80433578D01*
X111492185Y-80314803D01*
X116999635Y-80314803D01*
X117019830Y-80494049D01*
X117019831Y-80494054D01*
X117079411Y-80664323D01*
X117120632Y-80729925D01*
X117175384Y-80817062D01*
X117302938Y-80944616D01*
X117455678Y-81040589D01*
X117587264Y-81086633D01*
X117625945Y-81100168D01*
X117625950Y-81100169D01*
X117805196Y-81120365D01*
X117805200Y-81120365D01*
X117805204Y-81120365D01*
X117984449Y-81100169D01*
X117984452Y-81100168D01*
X117984455Y-81100168D01*
X118154722Y-81040589D01*
X118307462Y-80944616D01*
X118435016Y-80817062D01*
X118530989Y-80664322D01*
X118590568Y-80494055D01*
X118597382Y-80433578D01*
X118610765Y-80314803D01*
X118610765Y-80314796D01*
X118590569Y-80135550D01*
X118590568Y-80135545D01*
X118564760Y-80061791D01*
X118530989Y-79965278D01*
X118520756Y-79948993D01*
X118468179Y-79865317D01*
X118435016Y-79812538D01*
X118307462Y-79684984D01*
X118219956Y-79630000D01*
X118154723Y-79589011D01*
X117984454Y-79529431D01*
X117984449Y-79529430D01*
X117805204Y-79509235D01*
X117805196Y-79509235D01*
X117625950Y-79529430D01*
X117625945Y-79529431D01*
X117455676Y-79589011D01*
X117302937Y-79684984D01*
X117175384Y-79812537D01*
X117079411Y-79965276D01*
X117019831Y-80135545D01*
X117019830Y-80135550D01*
X116999635Y-80314796D01*
X116999635Y-80314803D01*
X111492185Y-80314803D01*
X111536629Y-80219492D01*
X111536632Y-80219486D01*
X111593836Y-80006000D01*
X110696212Y-80006000D01*
X110729125Y-79948993D01*
X110763200Y-79821826D01*
X110763200Y-79690174D01*
X110729125Y-79563007D01*
X110696212Y-79506000D01*
X111593836Y-79506000D01*
X111593835Y-79505999D01*
X111536632Y-79292513D01*
X111536629Y-79292507D01*
X111436800Y-79078422D01*
X111436799Y-79078420D01*
X111301313Y-78884926D01*
X111301308Y-78884920D01*
X111134278Y-78717890D01*
X110948605Y-78587879D01*
X110904980Y-78533302D01*
X110897788Y-78463804D01*
X110929310Y-78401449D01*
X110948606Y-78384730D01*
X111134601Y-78254495D01*
X111275226Y-78113870D01*
X115362500Y-78113870D01*
X115362501Y-78113876D01*
X115368908Y-78173483D01*
X115419202Y-78308328D01*
X115419206Y-78308335D01*
X115505452Y-78423544D01*
X115505455Y-78423547D01*
X115620664Y-78509793D01*
X115620671Y-78509797D01*
X115755517Y-78560091D01*
X115755516Y-78560091D01*
X115762444Y-78560835D01*
X115815127Y-78566500D01*
X117610872Y-78566499D01*
X117670483Y-78560091D01*
X117805331Y-78509796D01*
X117920546Y-78423546D01*
X118006796Y-78308331D01*
X118057091Y-78173483D01*
X118063500Y-78113873D01*
X118063499Y-76318128D01*
X118057091Y-76258517D01*
X118006796Y-76123669D01*
X118006795Y-76123668D01*
X118006793Y-76123664D01*
X117920547Y-76008455D01*
X117920544Y-76008452D01*
X117805335Y-75922206D01*
X117805328Y-75922202D01*
X117670482Y-75871908D01*
X117670483Y-75871908D01*
X117610883Y-75865501D01*
X117610881Y-75865500D01*
X117610873Y-75865500D01*
X117610864Y-75865500D01*
X115815129Y-75865500D01*
X115815123Y-75865501D01*
X115755516Y-75871908D01*
X115620671Y-75922202D01*
X115620664Y-75922206D01*
X115505455Y-76008452D01*
X115505452Y-76008455D01*
X115419206Y-76123664D01*
X115419202Y-76123671D01*
X115368908Y-76258517D01*
X115362501Y-76318116D01*
X115362501Y-76318123D01*
X115362500Y-76318135D01*
X115362500Y-78113870D01*
X111275226Y-78113870D01*
X111301695Y-78087401D01*
X111437235Y-77893830D01*
X111537103Y-77679663D01*
X111598263Y-77451408D01*
X111618859Y-77216000D01*
X111598263Y-76980592D01*
X111537103Y-76752337D01*
X111437235Y-76538171D01*
X111301695Y-76344599D01*
X111301694Y-76344597D01*
X111134602Y-76177506D01*
X111134596Y-76177501D01*
X110949042Y-76047575D01*
X110905417Y-75992998D01*
X110898223Y-75923500D01*
X110929746Y-75861145D01*
X110949042Y-75844425D01*
X110971226Y-75828891D01*
X111134601Y-75714495D01*
X111275226Y-75573870D01*
X119020100Y-75573870D01*
X119020101Y-75573876D01*
X119026508Y-75633483D01*
X119076802Y-75768328D01*
X119076806Y-75768335D01*
X119163052Y-75883544D01*
X119163055Y-75883547D01*
X119278264Y-75969793D01*
X119278271Y-75969797D01*
X119413117Y-76020091D01*
X119413116Y-76020091D01*
X119420044Y-76020835D01*
X119472727Y-76026500D01*
X121268472Y-76026499D01*
X121328083Y-76020091D01*
X121462931Y-75969796D01*
X121578146Y-75883546D01*
X121664396Y-75768331D01*
X121714691Y-75633483D01*
X121721100Y-75573873D01*
X121721099Y-73778128D01*
X121714691Y-73718517D01*
X121664396Y-73583669D01*
X121664395Y-73583668D01*
X121664393Y-73583664D01*
X121578147Y-73468455D01*
X121578144Y-73468452D01*
X121462935Y-73382206D01*
X121462928Y-73382202D01*
X121328082Y-73331908D01*
X121328083Y-73331908D01*
X121268483Y-73325501D01*
X121268481Y-73325500D01*
X121268473Y-73325500D01*
X121268464Y-73325500D01*
X119472729Y-73325500D01*
X119472723Y-73325501D01*
X119413116Y-73331908D01*
X119278271Y-73382202D01*
X119278264Y-73382206D01*
X119163055Y-73468452D01*
X119163052Y-73468455D01*
X119076806Y-73583664D01*
X119076802Y-73583671D01*
X119026508Y-73718517D01*
X119020101Y-73778116D01*
X119020101Y-73778123D01*
X119020100Y-73778135D01*
X119020100Y-75573870D01*
X111275226Y-75573870D01*
X111301695Y-75547401D01*
X111437235Y-75353830D01*
X111537103Y-75139663D01*
X111598263Y-74911408D01*
X111618859Y-74676000D01*
X111598263Y-74440592D01*
X111537103Y-74212337D01*
X111437235Y-73998171D01*
X111301695Y-73804599D01*
X111301694Y-73804597D01*
X111134602Y-73637506D01*
X111134596Y-73637501D01*
X110949042Y-73507575D01*
X110905417Y-73452998D01*
X110898223Y-73383500D01*
X110929746Y-73321145D01*
X110949042Y-73304425D01*
X110971226Y-73288891D01*
X111134601Y-73174495D01*
X111300626Y-73008470D01*
X114194100Y-73008470D01*
X114194101Y-73008476D01*
X114200508Y-73068083D01*
X114250802Y-73202928D01*
X114250806Y-73202935D01*
X114337052Y-73318144D01*
X114337055Y-73318147D01*
X114452264Y-73404393D01*
X114452271Y-73404397D01*
X114587117Y-73454691D01*
X114587116Y-73454691D01*
X114594044Y-73455435D01*
X114646727Y-73461100D01*
X116442472Y-73461099D01*
X116502083Y-73454691D01*
X116636931Y-73404396D01*
X116752146Y-73318146D01*
X116838396Y-73202931D01*
X116888691Y-73068083D01*
X116895100Y-73008473D01*
X116895099Y-71212728D01*
X116888691Y-71153117D01*
X116874257Y-71114418D01*
X116838397Y-71018271D01*
X116838393Y-71018264D01*
X116752147Y-70903055D01*
X116752144Y-70903052D01*
X116636935Y-70816806D01*
X116636928Y-70816802D01*
X116502082Y-70766508D01*
X116502083Y-70766508D01*
X116442483Y-70760101D01*
X116442481Y-70760100D01*
X116442473Y-70760100D01*
X116442464Y-70760100D01*
X114646729Y-70760100D01*
X114646723Y-70760101D01*
X114587116Y-70766508D01*
X114452271Y-70816802D01*
X114452264Y-70816806D01*
X114337055Y-70903052D01*
X114337052Y-70903055D01*
X114250806Y-71018264D01*
X114250802Y-71018271D01*
X114200508Y-71153117D01*
X114194101Y-71212716D01*
X114194101Y-71212723D01*
X114194100Y-71212735D01*
X114194100Y-73008470D01*
X111300626Y-73008470D01*
X111301695Y-73007401D01*
X111437235Y-72813830D01*
X111537103Y-72599663D01*
X111598263Y-72371408D01*
X111618859Y-72136000D01*
X111598263Y-71900592D01*
X111537103Y-71672337D01*
X111437235Y-71458171D01*
X111301695Y-71264599D01*
X111179767Y-71142671D01*
X111146284Y-71081351D01*
X111151268Y-71011659D01*
X111193139Y-70955725D01*
X111224115Y-70938810D01*
X111355531Y-70889796D01*
X111470746Y-70803546D01*
X111556996Y-70688331D01*
X111607291Y-70553483D01*
X111613700Y-70493873D01*
X111613700Y-70493870D01*
X118004100Y-70493870D01*
X118004101Y-70493876D01*
X118010508Y-70553483D01*
X118060802Y-70688328D01*
X118060806Y-70688335D01*
X118147052Y-70803544D01*
X118147055Y-70803547D01*
X118262264Y-70889793D01*
X118262271Y-70889797D01*
X118397117Y-70940091D01*
X118397116Y-70940091D01*
X118404044Y-70940835D01*
X118456727Y-70946500D01*
X120252472Y-70946499D01*
X120312083Y-70940091D01*
X120446931Y-70889796D01*
X120562146Y-70803546D01*
X120648396Y-70688331D01*
X120698691Y-70553483D01*
X120705100Y-70493873D01*
X120705099Y-69243402D01*
X122442723Y-69243402D01*
X122461793Y-69461375D01*
X122461793Y-69461379D01*
X122518422Y-69672722D01*
X122518424Y-69672726D01*
X122518425Y-69672730D01*
X122528064Y-69693400D01*
X122610897Y-69871038D01*
X122635998Y-69906886D01*
X122736402Y-70050277D01*
X122891123Y-70204998D01*
X123070361Y-70330502D01*
X123268670Y-70422975D01*
X123480023Y-70479607D01*
X123662926Y-70495608D01*
X123697998Y-70498677D01*
X123698000Y-70498677D01*
X123698002Y-70498677D01*
X123726254Y-70496205D01*
X123915977Y-70479607D01*
X124127330Y-70422975D01*
X124325639Y-70330502D01*
X124504877Y-70204998D01*
X124659598Y-70050277D01*
X124741426Y-69933413D01*
X124796002Y-69889790D01*
X124865501Y-69882598D01*
X124927855Y-69914120D01*
X124944570Y-69933410D01*
X125026402Y-70050277D01*
X125181123Y-70204998D01*
X125360361Y-70330502D01*
X125558670Y-70422975D01*
X125770023Y-70479607D01*
X125952926Y-70495608D01*
X125987998Y-70498677D01*
X125988000Y-70498677D01*
X125988002Y-70498677D01*
X126016254Y-70496205D01*
X126205977Y-70479607D01*
X126417330Y-70422975D01*
X126615639Y-70330502D01*
X126794877Y-70204998D01*
X126949598Y-70050277D01*
X127075102Y-69871039D01*
X127167575Y-69672730D01*
X127224207Y-69461377D01*
X127243277Y-69243400D01*
X127224207Y-69025423D01*
X127167575Y-68814070D01*
X127075102Y-68615762D01*
X127075100Y-68615759D01*
X127075099Y-68615757D01*
X126949599Y-68436524D01*
X126888420Y-68375345D01*
X126794877Y-68281802D01*
X126656978Y-68185244D01*
X126615638Y-68156297D01*
X126453188Y-68080546D01*
X126417330Y-68063825D01*
X126417326Y-68063824D01*
X126417322Y-68063822D01*
X126205977Y-68007193D01*
X125988002Y-67988123D01*
X125987998Y-67988123D01*
X125842682Y-68000836D01*
X125770023Y-68007193D01*
X125770020Y-68007193D01*
X125558677Y-68063822D01*
X125558668Y-68063826D01*
X125360361Y-68156298D01*
X125360357Y-68156300D01*
X125181121Y-68281802D01*
X125026402Y-68436521D01*
X124944575Y-68553384D01*
X124889998Y-68597009D01*
X124820500Y-68604203D01*
X124758145Y-68572680D01*
X124741425Y-68553384D01*
X124659599Y-68436524D01*
X124598420Y-68375345D01*
X124504877Y-68281802D01*
X124366978Y-68185244D01*
X124325638Y-68156297D01*
X124163188Y-68080546D01*
X124127330Y-68063825D01*
X124127326Y-68063824D01*
X124127322Y-68063822D01*
X123915977Y-68007193D01*
X123698002Y-67988123D01*
X123697998Y-67988123D01*
X123552682Y-68000836D01*
X123480023Y-68007193D01*
X123480020Y-68007193D01*
X123268677Y-68063822D01*
X123268668Y-68063826D01*
X123070361Y-68156298D01*
X123070357Y-68156300D01*
X122891121Y-68281802D01*
X122736402Y-68436521D01*
X122610900Y-68615757D01*
X122610898Y-68615761D01*
X122518426Y-68814068D01*
X122518422Y-68814077D01*
X122461793Y-69025420D01*
X122461793Y-69025424D01*
X122442723Y-69243397D01*
X122442723Y-69243402D01*
X120705099Y-69243402D01*
X120705099Y-68725552D01*
X120724784Y-68658514D01*
X120777587Y-68612759D01*
X120846746Y-68602815D01*
X120870054Y-68608512D01*
X120927937Y-68628766D01*
X120927943Y-68628767D01*
X120927945Y-68628768D01*
X120927946Y-68628768D01*
X120927950Y-68628769D01*
X121107196Y-68648965D01*
X121107200Y-68648965D01*
X121107204Y-68648965D01*
X121286449Y-68628769D01*
X121286452Y-68628768D01*
X121286455Y-68628768D01*
X121456722Y-68569189D01*
X121609462Y-68473216D01*
X121737016Y-68345662D01*
X121832989Y-68192922D01*
X121892568Y-68022655D01*
X121892569Y-68022649D01*
X121912765Y-67843403D01*
X121912765Y-67843396D01*
X121892569Y-67664150D01*
X121892568Y-67664145D01*
X121871897Y-67605070D01*
X121832989Y-67493878D01*
X121737016Y-67341138D01*
X121609462Y-67213584D01*
X121456723Y-67117611D01*
X121286454Y-67058031D01*
X121286449Y-67058030D01*
X121107204Y-67037835D01*
X121107196Y-67037835D01*
X120927950Y-67058030D01*
X120927945Y-67058031D01*
X120757676Y-67117611D01*
X120604937Y-67213584D01*
X120477384Y-67341137D01*
X120381411Y-67493876D01*
X120321831Y-67664145D01*
X120321830Y-67664150D01*
X120301635Y-67843396D01*
X120301635Y-67843403D01*
X120321830Y-68022649D01*
X120321832Y-68022657D01*
X120342088Y-68080546D01*
X120345649Y-68150325D01*
X120310920Y-68210952D01*
X120248926Y-68243179D01*
X120225046Y-68245500D01*
X118456729Y-68245500D01*
X118456723Y-68245501D01*
X118397116Y-68251908D01*
X118262271Y-68302202D01*
X118262264Y-68302206D01*
X118147055Y-68388452D01*
X118147052Y-68388455D01*
X118060806Y-68503664D01*
X118060802Y-68503671D01*
X118010508Y-68638517D01*
X118004101Y-68698116D01*
X118004101Y-68698123D01*
X118004100Y-68698135D01*
X118004100Y-70493870D01*
X111613700Y-70493870D01*
X111613699Y-68698128D01*
X111607291Y-68638517D01*
X111603655Y-68628769D01*
X111556997Y-68503671D01*
X111556993Y-68503664D01*
X111470747Y-68388455D01*
X111470744Y-68388452D01*
X111355535Y-68302206D01*
X111355528Y-68302202D01*
X111220682Y-68251908D01*
X111220683Y-68251908D01*
X111161083Y-68245501D01*
X111161081Y-68245500D01*
X111161073Y-68245500D01*
X111161064Y-68245500D01*
X109365329Y-68245500D01*
X109365323Y-68245501D01*
X109305716Y-68251908D01*
X109170871Y-68302202D01*
X109170864Y-68302206D01*
X109055655Y-68388452D01*
X109055652Y-68388455D01*
X108969406Y-68503664D01*
X108969402Y-68503671D01*
X108944682Y-68569951D01*
X108902811Y-68625885D01*
X108837347Y-68650302D01*
X108769074Y-68635450D01*
X108719668Y-68586045D01*
X108704500Y-68526618D01*
X108704500Y-66878203D01*
X127413635Y-66878203D01*
X127433830Y-67057449D01*
X127433831Y-67057454D01*
X127493411Y-67227723D01*
X127564674Y-67341137D01*
X127589384Y-67380462D01*
X127716938Y-67508016D01*
X127869678Y-67603989D01*
X127872768Y-67605070D01*
X127874500Y-67606312D01*
X127875953Y-67607012D01*
X127875830Y-67607266D01*
X127929545Y-67645791D01*
X127955294Y-67710743D01*
X127941839Y-67779305D01*
X127897789Y-67827106D01*
X127742339Y-67924782D01*
X127614784Y-68052337D01*
X127518811Y-68205076D01*
X127459231Y-68375345D01*
X127459230Y-68375350D01*
X127439035Y-68554596D01*
X127439035Y-68554603D01*
X127459230Y-68733849D01*
X127459231Y-68733854D01*
X127518811Y-68904123D01*
X127595030Y-69025424D01*
X127614784Y-69056862D01*
X127742338Y-69184416D01*
X127895078Y-69280389D01*
X128065345Y-69339968D01*
X128065350Y-69339969D01*
X128244596Y-69360165D01*
X128244600Y-69360165D01*
X128244604Y-69360165D01*
X128423849Y-69339969D01*
X128423852Y-69339968D01*
X128423855Y-69339968D01*
X128594122Y-69280389D01*
X128652990Y-69243400D01*
X133873225Y-69243400D01*
X133892287Y-69461284D01*
X133892289Y-69461294D01*
X133948894Y-69672550D01*
X133948898Y-69672559D01*
X134041333Y-69870787D01*
X134084874Y-69932971D01*
X134685861Y-69331984D01*
X134708667Y-69417094D01*
X134767910Y-69519706D01*
X134851694Y-69603490D01*
X134954306Y-69662733D01*
X135039414Y-69685537D01*
X134438427Y-70286524D01*
X134500612Y-70330066D01*
X134698840Y-70422501D01*
X134698849Y-70422505D01*
X134910105Y-70479110D01*
X134910115Y-70479112D01*
X135127999Y-70498175D01*
X135128001Y-70498175D01*
X135345884Y-70479112D01*
X135345894Y-70479110D01*
X135557150Y-70422505D01*
X135557164Y-70422500D01*
X135755383Y-70330069D01*
X135755385Y-70330068D01*
X135817571Y-70286524D01*
X135216585Y-69685537D01*
X135301694Y-69662733D01*
X135404306Y-69603490D01*
X135488090Y-69519706D01*
X135547333Y-69417094D01*
X135570138Y-69331985D01*
X136171124Y-69932971D01*
X136171129Y-69932970D01*
X136225697Y-69889353D01*
X136295195Y-69882161D01*
X136357550Y-69913684D01*
X136374263Y-69932971D01*
X136456402Y-70050277D01*
X136611123Y-70204998D01*
X136790361Y-70330502D01*
X136988670Y-70422975D01*
X137200023Y-70479607D01*
X137382926Y-70495608D01*
X137417998Y-70498677D01*
X137418000Y-70498677D01*
X137418002Y-70498677D01*
X137446254Y-70496205D01*
X137635977Y-70479607D01*
X137847330Y-70422975D01*
X138045639Y-70330502D01*
X138224877Y-70204998D01*
X138379598Y-70050277D01*
X138505102Y-69871039D01*
X138597575Y-69672730D01*
X138654207Y-69461377D01*
X138673277Y-69243400D01*
X138654207Y-69025423D01*
X138597575Y-68814070D01*
X138505102Y-68615762D01*
X138505100Y-68615759D01*
X138505099Y-68615757D01*
X138379599Y-68436524D01*
X138318420Y-68375345D01*
X138224877Y-68281802D01*
X138086978Y-68185244D01*
X138045638Y-68156297D01*
X137883188Y-68080546D01*
X137847330Y-68063825D01*
X137847326Y-68063824D01*
X137847322Y-68063822D01*
X137635977Y-68007193D01*
X137418002Y-67988123D01*
X137417998Y-67988123D01*
X137272682Y-68000836D01*
X137200023Y-68007193D01*
X137200020Y-68007193D01*
X136988677Y-68063822D01*
X136988668Y-68063826D01*
X136790361Y-68156298D01*
X136790357Y-68156300D01*
X136611121Y-68281802D01*
X136456405Y-68436518D01*
X136374269Y-68553821D01*
X136319692Y-68597445D01*
X136250193Y-68604638D01*
X136187839Y-68573116D01*
X136171125Y-68553828D01*
X136171124Y-68553827D01*
X135570137Y-69154814D01*
X135547333Y-69069706D01*
X135488090Y-68967094D01*
X135404306Y-68883310D01*
X135301694Y-68824067D01*
X135216584Y-68801261D01*
X135817571Y-68200274D01*
X135755387Y-68156733D01*
X135557159Y-68064298D01*
X135557150Y-68064294D01*
X135345894Y-68007689D01*
X135345884Y-68007687D01*
X135128001Y-67988625D01*
X135127999Y-67988625D01*
X134910115Y-68007687D01*
X134910105Y-68007689D01*
X134698849Y-68064294D01*
X134698840Y-68064298D01*
X134500613Y-68156733D01*
X134438428Y-68200274D01*
X135039415Y-68801261D01*
X134954306Y-68824067D01*
X134851694Y-68883310D01*
X134767910Y-68967094D01*
X134708667Y-69069706D01*
X134685861Y-69154815D01*
X134084874Y-68553828D01*
X134041333Y-68616013D01*
X133948898Y-68814240D01*
X133948894Y-68814249D01*
X133892289Y-69025505D01*
X133892287Y-69025515D01*
X133873225Y-69243399D01*
X133873225Y-69243400D01*
X128652990Y-69243400D01*
X128746862Y-69184416D01*
X128874416Y-69056862D01*
X128970389Y-68904122D01*
X129029968Y-68733855D01*
X129029969Y-68733849D01*
X129050165Y-68554603D01*
X129050165Y-68554596D01*
X129029969Y-68375350D01*
X129029968Y-68375345D01*
X129005931Y-68306651D01*
X128970389Y-68205078D01*
X128967370Y-68200274D01*
X128881634Y-68063826D01*
X128874416Y-68052338D01*
X128746862Y-67924784D01*
X128594122Y-67828811D01*
X128594119Y-67828809D01*
X128591024Y-67827726D01*
X128589292Y-67826484D01*
X128587847Y-67825788D01*
X128587968Y-67825534D01*
X128534250Y-67787003D01*
X128508505Y-67722049D01*
X128521963Y-67653488D01*
X128566011Y-67605692D01*
X128568720Y-67603989D01*
X128568722Y-67603989D01*
X128721462Y-67508016D01*
X128849016Y-67380462D01*
X128944989Y-67227722D01*
X129004568Y-67057455D01*
X129024765Y-66878200D01*
X129004568Y-66698945D01*
X128944989Y-66528678D01*
X128849016Y-66375938D01*
X128721462Y-66248384D01*
X128568723Y-66152411D01*
X128398454Y-66092831D01*
X128398449Y-66092830D01*
X128219204Y-66072635D01*
X128219196Y-66072635D01*
X128039950Y-66092830D01*
X128039945Y-66092831D01*
X127869676Y-66152411D01*
X127716937Y-66248384D01*
X127589384Y-66375937D01*
X127493411Y-66528676D01*
X127433831Y-66698945D01*
X127433830Y-66698950D01*
X127413635Y-66878196D01*
X127413635Y-66878203D01*
X108704500Y-66878203D01*
X108704500Y-63663401D01*
X120573274Y-63663401D01*
X120592152Y-63927360D01*
X120648400Y-64185928D01*
X120740884Y-64433887D01*
X120867701Y-64666135D01*
X120867706Y-64666143D01*
X120955038Y-64782806D01*
X120955039Y-64782806D01*
X121637521Y-64100323D01*
X121728924Y-64237117D01*
X121854283Y-64362476D01*
X121991074Y-64453877D01*
X121308592Y-65136359D01*
X121308593Y-65136360D01*
X121425256Y-65223693D01*
X121425264Y-65223698D01*
X121657513Y-65350515D01*
X121657512Y-65350515D01*
X121905471Y-65442999D01*
X122164039Y-65499247D01*
X122427999Y-65518126D01*
X122428001Y-65518126D01*
X122691960Y-65499247D01*
X122950528Y-65442999D01*
X123198487Y-65350515D01*
X123430735Y-65223698D01*
X123430736Y-65223697D01*
X123547406Y-65136359D01*
X122864924Y-64453877D01*
X123001717Y-64362476D01*
X123127076Y-64237117D01*
X123218477Y-64100324D01*
X123900959Y-64782806D01*
X123988297Y-64666136D01*
X123988298Y-64666135D01*
X124115115Y-64433887D01*
X124207599Y-64185928D01*
X124263847Y-63927360D01*
X124282726Y-63663401D01*
X124282726Y-63663398D01*
X124263847Y-63399439D01*
X124219026Y-63193401D01*
X125737500Y-63193401D01*
X125737501Y-63193419D01*
X125748000Y-63296196D01*
X125748001Y-63296199D01*
X125802877Y-63461802D01*
X125803186Y-63462734D01*
X125895288Y-63612056D01*
X126019344Y-63736112D01*
X126168666Y-63828214D01*
X126335203Y-63883399D01*
X126437991Y-63893900D01*
X126693666Y-63893899D01*
X126760704Y-63913583D01*
X126806459Y-63966387D01*
X126816403Y-64035546D01*
X126813440Y-64049992D01*
X126771793Y-64205420D01*
X126771793Y-64205424D01*
X126752723Y-64423397D01*
X126752723Y-64423402D01*
X126771793Y-64641375D01*
X126771793Y-64641379D01*
X126828422Y-64852722D01*
X126828424Y-64852726D01*
X126828425Y-64852730D01*
X126874661Y-64951884D01*
X126920897Y-65051038D01*
X126920898Y-65051039D01*
X127046402Y-65230277D01*
X127201123Y-65384998D01*
X127380361Y-65510502D01*
X127578670Y-65602975D01*
X127790023Y-65659607D01*
X127972926Y-65675608D01*
X128007998Y-65678677D01*
X128008000Y-65678677D01*
X128008002Y-65678677D01*
X128036254Y-65676205D01*
X128225977Y-65659607D01*
X128437330Y-65602975D01*
X128635639Y-65510502D01*
X128814877Y-65384998D01*
X128940319Y-65259556D01*
X129001642Y-65226071D01*
X129071334Y-65231055D01*
X129115681Y-65259556D01*
X129241123Y-65384998D01*
X129420361Y-65510502D01*
X129618670Y-65602975D01*
X129830023Y-65659607D01*
X130012926Y-65675608D01*
X130047998Y-65678677D01*
X130048000Y-65678677D01*
X130048002Y-65678677D01*
X130076254Y-65676205D01*
X130265977Y-65659607D01*
X130477330Y-65602975D01*
X130675639Y-65510502D01*
X130854877Y-65384998D01*
X130980319Y-65259556D01*
X131041642Y-65226071D01*
X131111334Y-65231055D01*
X131155681Y-65259556D01*
X131281123Y-65384998D01*
X131460361Y-65510502D01*
X131658670Y-65602975D01*
X131870023Y-65659607D01*
X132052926Y-65675608D01*
X132087998Y-65678677D01*
X132088000Y-65678677D01*
X132088002Y-65678677D01*
X132116254Y-65676205D01*
X132305977Y-65659607D01*
X132517330Y-65602975D01*
X132715639Y-65510502D01*
X132894877Y-65384998D01*
X133020319Y-65259556D01*
X133081642Y-65226071D01*
X133151334Y-65231055D01*
X133195681Y-65259556D01*
X133321123Y-65384998D01*
X133500361Y-65510502D01*
X133698670Y-65602975D01*
X133910023Y-65659607D01*
X134092926Y-65675608D01*
X134127998Y-65678677D01*
X134128000Y-65678677D01*
X134128002Y-65678677D01*
X134156254Y-65676205D01*
X134345977Y-65659607D01*
X134557330Y-65602975D01*
X134755639Y-65510502D01*
X134934877Y-65384998D01*
X135089598Y-65230277D01*
X135215102Y-65051039D01*
X135307575Y-64852730D01*
X135364207Y-64641377D01*
X135383277Y-64423400D01*
X135364207Y-64205423D01*
X135322559Y-64049992D01*
X135307577Y-63994077D01*
X135307576Y-63994076D01*
X135307575Y-63994070D01*
X135215102Y-63795762D01*
X135215100Y-63795759D01*
X135215099Y-63795757D01*
X135122423Y-63663401D01*
X136833274Y-63663401D01*
X136852152Y-63927360D01*
X136908400Y-64185928D01*
X137000884Y-64433887D01*
X137127701Y-64666135D01*
X137127706Y-64666143D01*
X137215038Y-64782806D01*
X137215039Y-64782806D01*
X137897521Y-64100323D01*
X137988924Y-64237117D01*
X138114283Y-64362476D01*
X138251074Y-64453877D01*
X137568592Y-65136359D01*
X137568593Y-65136360D01*
X137685256Y-65223693D01*
X137685264Y-65223698D01*
X137917513Y-65350515D01*
X137917512Y-65350515D01*
X138165471Y-65442999D01*
X138424039Y-65499247D01*
X138687999Y-65518126D01*
X138688001Y-65518126D01*
X138951960Y-65499247D01*
X139210528Y-65442999D01*
X139458487Y-65350515D01*
X139690735Y-65223698D01*
X139690736Y-65223697D01*
X139807406Y-65136359D01*
X139124924Y-64453877D01*
X139261717Y-64362476D01*
X139387076Y-64237117D01*
X139478477Y-64100324D01*
X140160959Y-64782806D01*
X140248297Y-64666136D01*
X140248298Y-64666135D01*
X140375115Y-64433887D01*
X140467599Y-64185928D01*
X140523847Y-63927360D01*
X140542726Y-63663401D01*
X140542726Y-63663398D01*
X140523847Y-63399439D01*
X140467599Y-63140871D01*
X140375115Y-62892912D01*
X140248298Y-62660664D01*
X140248293Y-62660656D01*
X140160960Y-62543993D01*
X140160959Y-62543992D01*
X139478477Y-63226474D01*
X139387076Y-63089683D01*
X139261717Y-62964324D01*
X139124924Y-62872922D01*
X139807406Y-62190439D01*
X139807406Y-62190438D01*
X139690743Y-62103106D01*
X139690735Y-62103101D01*
X139458486Y-61976284D01*
X139458487Y-61976284D01*
X139210528Y-61883800D01*
X138951960Y-61827552D01*
X138688001Y-61808674D01*
X138687999Y-61808674D01*
X138424039Y-61827552D01*
X138165471Y-61883800D01*
X137917512Y-61976284D01*
X137685264Y-62103101D01*
X137568593Y-62190439D01*
X138251076Y-62872922D01*
X138114283Y-62964324D01*
X137988924Y-63089683D01*
X137897522Y-63226476D01*
X137215039Y-62543993D01*
X137127701Y-62660664D01*
X137000884Y-62892912D01*
X136908400Y-63140871D01*
X136852152Y-63399439D01*
X136833274Y-63663398D01*
X136833274Y-63663401D01*
X135122423Y-63663401D01*
X135089599Y-63616524D01*
X135047833Y-63574758D01*
X134934877Y-63461802D01*
X134755639Y-63336298D01*
X134755640Y-63336298D01*
X134755638Y-63336297D01*
X134656484Y-63290061D01*
X134557330Y-63243825D01*
X134557326Y-63243824D01*
X134557324Y-63243823D01*
X134382646Y-63197018D01*
X134322986Y-63160653D01*
X134292457Y-63097806D01*
X134294965Y-63045149D01*
X134316622Y-62964324D01*
X134344207Y-62861377D01*
X134363277Y-62643400D01*
X134344207Y-62425423D01*
X134287575Y-62214070D01*
X134195102Y-62015762D01*
X134195100Y-62015759D01*
X134195099Y-62015757D01*
X134069599Y-61836524D01*
X133999029Y-61765954D01*
X133914877Y-61681802D01*
X133735639Y-61556298D01*
X133735640Y-61556298D01*
X133735638Y-61556297D01*
X133636484Y-61510061D01*
X133537330Y-61463825D01*
X133537326Y-61463824D01*
X133537322Y-61463822D01*
X133325977Y-61407193D01*
X133108002Y-61388123D01*
X133107998Y-61388123D01*
X132962682Y-61400836D01*
X132890023Y-61407193D01*
X132890020Y-61407193D01*
X132678677Y-61463822D01*
X132678668Y-61463826D01*
X132480361Y-61556298D01*
X132480357Y-61556300D01*
X132301124Y-61681800D01*
X132175680Y-61807244D01*
X132114357Y-61840728D01*
X132044665Y-61835744D01*
X132000318Y-61807243D01*
X131874881Y-61681806D01*
X131874877Y-61681802D01*
X131695639Y-61556298D01*
X131695640Y-61556298D01*
X131695638Y-61556297D01*
X131596484Y-61510061D01*
X131497330Y-61463825D01*
X131497326Y-61463824D01*
X131497322Y-61463822D01*
X131285977Y-61407193D01*
X131068002Y-61388123D01*
X131067998Y-61388123D01*
X130922682Y-61400836D01*
X130850023Y-61407193D01*
X130850020Y-61407193D01*
X130638677Y-61463822D01*
X130638668Y-61463826D01*
X130440361Y-61556298D01*
X130440357Y-61556300D01*
X130261124Y-61681800D01*
X130135680Y-61807244D01*
X130074357Y-61840728D01*
X130004665Y-61835744D01*
X129960318Y-61807243D01*
X129834881Y-61681806D01*
X129834877Y-61681802D01*
X129655639Y-61556298D01*
X129655640Y-61556298D01*
X129655638Y-61556297D01*
X129556484Y-61510061D01*
X129457330Y-61463825D01*
X129457326Y-61463824D01*
X129457322Y-61463822D01*
X129245977Y-61407193D01*
X129028002Y-61388123D01*
X129027998Y-61388123D01*
X128882682Y-61400836D01*
X128810023Y-61407193D01*
X128810020Y-61407193D01*
X128598677Y-61463822D01*
X128598668Y-61463826D01*
X128400361Y-61556298D01*
X128400357Y-61556300D01*
X128227920Y-61677042D01*
X128161714Y-61699369D01*
X128093947Y-61682359D01*
X128069116Y-61663148D01*
X127956657Y-61550689D01*
X127956656Y-61550688D01*
X127863888Y-61493469D01*
X127807336Y-61458587D01*
X127807331Y-61458585D01*
X127805862Y-61458098D01*
X127640797Y-61403401D01*
X127640795Y-61403400D01*
X127538010Y-61392900D01*
X126437998Y-61392900D01*
X126437980Y-61392901D01*
X126335203Y-61403400D01*
X126335200Y-61403401D01*
X126168668Y-61458585D01*
X126168663Y-61458587D01*
X126019342Y-61550689D01*
X125895289Y-61674742D01*
X125803187Y-61824063D01*
X125803185Y-61824068D01*
X125783598Y-61883178D01*
X125748001Y-61990603D01*
X125748001Y-61990604D01*
X125748000Y-61990604D01*
X125737500Y-62093383D01*
X125737500Y-63193401D01*
X124219026Y-63193401D01*
X124207599Y-63140871D01*
X124115115Y-62892912D01*
X123988298Y-62660664D01*
X123988293Y-62660656D01*
X123900960Y-62543993D01*
X123900959Y-62543992D01*
X123218477Y-63226474D01*
X123127076Y-63089683D01*
X123001717Y-62964324D01*
X122864924Y-62872922D01*
X123547406Y-62190439D01*
X123547406Y-62190438D01*
X123430743Y-62103106D01*
X123430735Y-62103101D01*
X123198486Y-61976284D01*
X123198487Y-61976284D01*
X122950528Y-61883800D01*
X122691960Y-61827552D01*
X122428001Y-61808674D01*
X122427999Y-61808674D01*
X122164039Y-61827552D01*
X121905471Y-61883800D01*
X121657512Y-61976284D01*
X121425264Y-62103101D01*
X121308593Y-62190439D01*
X121991076Y-62872922D01*
X121854283Y-62964324D01*
X121728924Y-63089683D01*
X121637522Y-63226476D01*
X120955039Y-62543993D01*
X120867701Y-62660664D01*
X120740884Y-62892912D01*
X120648400Y-63140871D01*
X120592152Y-63399439D01*
X120573274Y-63663398D01*
X120573274Y-63663401D01*
X108704500Y-63663401D01*
X108704500Y-60226334D01*
X122332500Y-60226334D01*
X122359227Y-60429339D01*
X122364591Y-60470077D01*
X122364592Y-60470079D01*
X122428222Y-60707552D01*
X122428225Y-60707562D01*
X122522303Y-60934685D01*
X122522306Y-60934692D01*
X122645233Y-61147608D01*
X122645235Y-61147611D01*
X122645236Y-61147612D01*
X122794897Y-61342654D01*
X122794903Y-61342661D01*
X122968738Y-61516496D01*
X122968745Y-61516502D01*
X123020607Y-61556297D01*
X123163792Y-61666167D01*
X123376708Y-61789094D01*
X123603847Y-61883178D01*
X123841323Y-61946809D01*
X124085073Y-61978900D01*
X124085080Y-61978900D01*
X124330920Y-61978900D01*
X124330927Y-61978900D01*
X124574677Y-61946809D01*
X124812153Y-61883178D01*
X125039292Y-61789094D01*
X125252208Y-61666167D01*
X125447256Y-61516501D01*
X125621101Y-61342656D01*
X125770767Y-61147608D01*
X125893694Y-60934692D01*
X125987778Y-60707553D01*
X126051409Y-60470077D01*
X126083499Y-60226334D01*
X135032500Y-60226334D01*
X135059227Y-60429339D01*
X135064591Y-60470077D01*
X135064592Y-60470079D01*
X135128222Y-60707552D01*
X135128225Y-60707562D01*
X135222303Y-60934685D01*
X135222306Y-60934692D01*
X135345233Y-61147608D01*
X135345235Y-61147611D01*
X135345236Y-61147612D01*
X135494897Y-61342654D01*
X135494903Y-61342661D01*
X135668738Y-61516496D01*
X135668745Y-61516502D01*
X135720607Y-61556297D01*
X135863792Y-61666167D01*
X136076708Y-61789094D01*
X136303847Y-61883178D01*
X136541323Y-61946809D01*
X136785073Y-61978900D01*
X136785080Y-61978900D01*
X137030920Y-61978900D01*
X137030927Y-61978900D01*
X137274677Y-61946809D01*
X137512153Y-61883178D01*
X137739292Y-61789094D01*
X137952208Y-61666167D01*
X138147256Y-61516501D01*
X138321101Y-61342656D01*
X138470767Y-61147608D01*
X138593694Y-60934692D01*
X138687778Y-60707553D01*
X138751409Y-60470077D01*
X138783500Y-60226327D01*
X138783500Y-59980473D01*
X138751409Y-59736723D01*
X138687778Y-59499247D01*
X138593694Y-59272108D01*
X138470767Y-59059192D01*
X138321101Y-58864144D01*
X138321096Y-58864138D01*
X138147261Y-58690303D01*
X138147254Y-58690297D01*
X137952212Y-58540636D01*
X137952211Y-58540635D01*
X137952208Y-58540633D01*
X137739292Y-58417706D01*
X137739285Y-58417703D01*
X137512162Y-58323625D01*
X137512155Y-58323623D01*
X137512153Y-58323622D01*
X137274677Y-58259991D01*
X137233939Y-58254627D01*
X137030934Y-58227900D01*
X137030927Y-58227900D01*
X136785073Y-58227900D01*
X136785065Y-58227900D01*
X136553059Y-58258445D01*
X136541323Y-58259991D01*
X136452496Y-58283792D01*
X136303847Y-58323622D01*
X136303837Y-58323625D01*
X136076714Y-58417703D01*
X136076705Y-58417707D01*
X135863787Y-58540636D01*
X135668745Y-58690297D01*
X135668738Y-58690303D01*
X135494903Y-58864138D01*
X135494897Y-58864145D01*
X135345236Y-59059187D01*
X135222307Y-59272105D01*
X135222303Y-59272114D01*
X135128225Y-59499237D01*
X135128222Y-59499247D01*
X135064592Y-59736720D01*
X135064590Y-59736731D01*
X135032500Y-59980465D01*
X135032500Y-60226334D01*
X126083499Y-60226334D01*
X126083500Y-60226327D01*
X126083500Y-59980473D01*
X126051409Y-59736723D01*
X125987778Y-59499247D01*
X125893694Y-59272108D01*
X125770767Y-59059192D01*
X125621101Y-58864144D01*
X125621096Y-58864138D01*
X125447261Y-58690303D01*
X125447254Y-58690297D01*
X125252212Y-58540636D01*
X125252211Y-58540635D01*
X125252208Y-58540633D01*
X125039292Y-58417706D01*
X125039285Y-58417703D01*
X124812162Y-58323625D01*
X124812155Y-58323623D01*
X124812153Y-58323622D01*
X124574677Y-58259991D01*
X124533939Y-58254627D01*
X124330934Y-58227900D01*
X124330927Y-58227900D01*
X124085073Y-58227900D01*
X124085065Y-58227900D01*
X123853059Y-58258445D01*
X123841323Y-58259991D01*
X123752496Y-58283792D01*
X123603847Y-58323622D01*
X123603837Y-58323625D01*
X123376714Y-58417703D01*
X123376705Y-58417707D01*
X123163787Y-58540636D01*
X122968745Y-58690297D01*
X122968738Y-58690303D01*
X122794903Y-58864138D01*
X122794897Y-58864145D01*
X122645236Y-59059187D01*
X122522307Y-59272105D01*
X122522303Y-59272114D01*
X122428225Y-59499237D01*
X122428222Y-59499247D01*
X122364592Y-59736720D01*
X122364590Y-59736731D01*
X122332500Y-59980465D01*
X122332500Y-60226334D01*
X108704500Y-60226334D01*
X108704500Y-57510286D01*
X109901500Y-57510286D01*
X109934753Y-57720239D01*
X110000444Y-57922414D01*
X110096951Y-58111820D01*
X110221890Y-58283786D01*
X110372213Y-58434109D01*
X110544179Y-58559048D01*
X110544181Y-58559049D01*
X110544184Y-58559051D01*
X110733588Y-58655557D01*
X110935757Y-58721246D01*
X111145713Y-58754500D01*
X111145714Y-58754500D01*
X111358286Y-58754500D01*
X111358287Y-58754500D01*
X111568243Y-58721246D01*
X111770412Y-58655557D01*
X111959816Y-58559051D01*
X111985166Y-58540633D01*
X112131786Y-58434109D01*
X112131788Y-58434106D01*
X112131792Y-58434104D01*
X112282104Y-58283792D01*
X112282106Y-58283788D01*
X112282109Y-58283786D01*
X112407048Y-58111820D01*
X112407047Y-58111820D01*
X112407051Y-58111816D01*
X112503557Y-57922412D01*
X112569246Y-57720243D01*
X112602500Y-57510287D01*
X112602500Y-57510286D01*
X144445500Y-57510286D01*
X144478753Y-57720239D01*
X144544444Y-57922414D01*
X144640951Y-58111820D01*
X144765890Y-58283786D01*
X144916213Y-58434109D01*
X145088179Y-58559048D01*
X145088181Y-58559049D01*
X145088184Y-58559051D01*
X145277588Y-58655557D01*
X145479757Y-58721246D01*
X145689713Y-58754500D01*
X145689714Y-58754500D01*
X145902286Y-58754500D01*
X145902287Y-58754500D01*
X146112243Y-58721246D01*
X146314412Y-58655557D01*
X146503816Y-58559051D01*
X146529166Y-58540633D01*
X146675786Y-58434109D01*
X146675788Y-58434106D01*
X146675792Y-58434104D01*
X146826104Y-58283792D01*
X146826106Y-58283788D01*
X146826109Y-58283786D01*
X146951048Y-58111820D01*
X146951047Y-58111820D01*
X146951051Y-58111816D01*
X147047557Y-57922412D01*
X147113246Y-57720243D01*
X147146500Y-57510287D01*
X147146500Y-57297713D01*
X147113246Y-57087757D01*
X147047557Y-56885588D01*
X146951051Y-56696184D01*
X146951049Y-56696181D01*
X146951048Y-56696179D01*
X146826109Y-56524213D01*
X146675786Y-56373890D01*
X146503820Y-56248951D01*
X146314414Y-56152444D01*
X146314413Y-56152443D01*
X146314412Y-56152443D01*
X146112243Y-56086754D01*
X146112241Y-56086753D01*
X146112240Y-56086753D01*
X145950957Y-56061208D01*
X145902287Y-56053500D01*
X145689713Y-56053500D01*
X145641042Y-56061208D01*
X145479760Y-56086753D01*
X145277585Y-56152444D01*
X145088179Y-56248951D01*
X144916213Y-56373890D01*
X144765890Y-56524213D01*
X144640951Y-56696179D01*
X144544444Y-56885585D01*
X144478753Y-57087760D01*
X144445500Y-57297713D01*
X144445500Y-57510286D01*
X112602500Y-57510286D01*
X112602500Y-57297713D01*
X112569246Y-57087757D01*
X112503557Y-56885588D01*
X112407051Y-56696184D01*
X112407049Y-56696181D01*
X112407048Y-56696179D01*
X112282109Y-56524213D01*
X112131786Y-56373890D01*
X111959820Y-56248951D01*
X111770414Y-56152444D01*
X111770413Y-56152443D01*
X111770412Y-56152443D01*
X111568243Y-56086754D01*
X111568241Y-56086753D01*
X111568240Y-56086753D01*
X111406957Y-56061208D01*
X111358287Y-56053500D01*
X111145713Y-56053500D01*
X111097042Y-56061208D01*
X110935760Y-56086753D01*
X110733585Y-56152444D01*
X110544179Y-56248951D01*
X110372213Y-56373890D01*
X110221890Y-56524213D01*
X110096951Y-56696179D01*
X110000444Y-56885585D01*
X109934753Y-57087760D01*
X109901500Y-57297713D01*
X109901500Y-57510286D01*
X108704500Y-57510286D01*
X108704500Y-54980500D01*
X108724185Y-54913461D01*
X108776989Y-54867706D01*
X108828500Y-54856500D01*
X147965500Y-54856500D01*
X148032539Y-54876185D01*
G37*
%TD.AperFunction*%
%TD*%
M02*
