M48
; DRILL file {KiCad 8.0.1} date 2024-08-08T22:12:17-0700
; FORMAT={-:-/ absolute / inch / decimal}
; #@! TF.CreationDate,2024-08-08T22:12:17-07:00
; #@! TF.GenerationSoftware,Kicad,Pcbnew,8.0.1
; #@! TF.FileFunction,Plated,1,4,PTH
FMAT,2
INCH
; #@! TA.AperFunction,Plated,PTH,ViaDrill
T1C0.0118
; #@! TA.AperFunction,Plated,PTH,ComponentDrill
T2C0.0354
; #@! TA.AperFunction,Plated,PTH,ComponentDrill
T3C0.0394
; #@! TA.AperFunction,Plated,PTH,ComponentDrill
T4C0.0709
%
G90
G05
T1
X4.637Y-3.35
X4.638Y-3.162
X4.638Y-3.279
X4.64Y-3.57
X4.64Y-3.63
X4.7435Y-2.6513
X4.75Y-3.24
X4.754Y-3.4996
X4.768Y-2.671
X4.775Y-3.28
X4.789Y-3.567
X5.0355Y-2.6705
X5.048Y-2.633
X5.049Y-2.699
X5.0697Y-2.6102
X5.076Y-3.455
X5.217Y-3.136
X5.2485Y-3.1376
X5.286Y-3.373
X5.291Y-3.335
X5.386Y-3.502
X5.386Y-3.554
X5.41Y-3.3
X5.413Y-2.93
X5.428Y-3.336
X5.7493Y-3.1371
X5.78Y-3.13
T2
X4.87Y-2.7261
X4.9602Y-2.7261
X4.9995Y-2.4663
X5.0397Y-2.5364
X5.0798Y-2.4663
X5.12Y-2.5364
X5.1602Y-2.4663
X5.2003Y-2.5364
X5.2405Y-2.4663
X5.2806Y-2.5364
X5.32Y-2.7261
X5.4102Y-2.7261
T3
X4.34Y-3.3498
X4.34Y-3.4498
X4.3411Y-2.74
X4.3411Y-2.84
X4.3411Y-2.94
X4.3411Y-3.04
X4.3411Y-3.14
X4.549Y-2.839
X4.595Y-3.04
X4.699Y-2.74
X4.739Y-2.94
X4.892Y-3.67
X4.988Y-3.182
X5.064Y-3.558
X5.082Y-3.351
X5.34Y-3.16
X5.39Y-3.69
X5.641Y-3.292
X5.741Y-3.439
T4
X4.82Y-2.5064
X5.4602Y-2.5064
M30
