%TF.GenerationSoftware,KiCad,Pcbnew,8.0.1*%
%TF.CreationDate,2024-08-08T22:12:17-07:00*%
%TF.ProjectId,spi_ethernet_mcu_side,7370695f-6574-4686-9572-6e65745f6d63,rev?*%
%TF.SameCoordinates,Original*%
%TF.FileFunction,Copper,L4,Bot*%
%TF.FilePolarity,Positive*%
%FSLAX46Y46*%
G04 Gerber Fmt 4.6, Leading zero omitted, Abs format (unit mm)*
G04 Created by KiCad (PCBNEW 8.0.1) date 2024-08-08 22:12:17*
%MOMM*%
%LPD*%
G01*
G04 APERTURE LIST*
G04 Aperture macros list*
%AMRoundRect*
0 Rectangle with rounded corners*
0 $1 Rounding radius*
0 $2 $3 $4 $5 $6 $7 $8 $9 X,Y pos of 4 corners*
0 Add a 4 corners polygon primitive as box body*
4,1,4,$2,$3,$4,$5,$6,$7,$8,$9,$2,$3,0*
0 Add four circle primitives for the rounded corners*
1,1,$1+$1,$2,$3*
1,1,$1+$1,$4,$5*
1,1,$1+$1,$6,$7*
1,1,$1+$1,$8,$9*
0 Add four rect primitives between the rounded corners*
20,1,$1+$1,$2,$3,$4,$5,0*
20,1,$1+$1,$4,$5,$6,$7,0*
20,1,$1+$1,$6,$7,$8,$9,0*
20,1,$1+$1,$8,$9,$2,$3,0*%
G04 Aperture macros list end*
%TA.AperFunction,ComponentPad*%
%ADD10R,1.700000X1.700000*%
%TD*%
%TA.AperFunction,ComponentPad*%
%ADD11C,2.700000*%
%TD*%
%TA.AperFunction,ComponentPad*%
%ADD12C,1.500000*%
%TD*%
%TA.AperFunction,ComponentPad*%
%ADD13RoundRect,0.250000X0.500000X0.500000X-0.500000X0.500000X-0.500000X-0.500000X0.500000X-0.500000X0*%
%TD*%
%TA.AperFunction,ComponentPad*%
%ADD14O,1.700000X1.700000*%
%TD*%
%TA.AperFunction,ViaPad*%
%ADD15C,0.600000*%
%TD*%
%TA.AperFunction,Conductor*%
%ADD16C,0.254000*%
%TD*%
%TA.AperFunction,Conductor*%
%ADD17C,0.400000*%
%TD*%
G04 APERTURE END LIST*
D10*
%TO.P,TP5,1,1*%
%TO.N,/SPI1_SCK_B*%
X145821400Y-87350600D03*
%TD*%
%TO.P,TP4,1,1*%
%TO.N,/SPI1_SCK_A*%
X143281400Y-83616800D03*
%TD*%
%TO.P,TP2,1,1*%
%TO.N,/SPI1_SDO_Z*%
X128625600Y-90373200D03*
%TD*%
%TO.P,TP1,1,1*%
%TO.N,/SPI1_SDO_Y*%
X124256800Y-93218000D03*
%TD*%
%TO.P,TP9,1,1*%
%TO.N,/SPI1_SCK*%
X119354600Y-69596000D03*
%TD*%
%TO.P,TP10,1,1*%
%TO.N,/SPI1_~{CS}*%
X115544600Y-72110600D03*
%TD*%
%TO.P,TP3,1,1*%
%TO.N,/SPI1_SDI_B*%
X129082800Y-85115400D03*
%TD*%
%TO.P,TP12,1,1*%
%TO.N,/SPI1_SDI*%
X116713000Y-77216000D03*
%TD*%
%TO.P,TP11,1,1*%
%TO.N,/SPI1_SDO*%
X120370600Y-74676000D03*
%TD*%
D11*
%TO.P,J1,SH*%
%TO.N,GND*%
X138688000Y-63663400D03*
X122428000Y-63663400D03*
D12*
%TO.P,J1,12*%
%TO.N,Net-(J1-Pad12)*%
X137418000Y-69243400D03*
%TO.P,J1,11*%
%TO.N,GND*%
X135128000Y-69243400D03*
%TO.P,J1,10*%
%TO.N,+3V3*%
X125988000Y-69243400D03*
%TO.P,J1,9*%
%TO.N,Net-(J1-Pad9)*%
X123698000Y-69243400D03*
%TO.P,J1,8*%
%TO.N,Net-(J1-Pad8)*%
X134128000Y-64423400D03*
%TO.P,J1,7*%
%TO.N,Net-(J1-Pad7)*%
X133108000Y-62643400D03*
%TO.P,J1,6*%
%TO.N,/SPI1_SDI_A*%
X132088000Y-64423400D03*
%TO.P,J1,5*%
%TO.N,/SPI1_SCK_B*%
X131068000Y-62643400D03*
%TO.P,J1,4*%
%TO.N,/SPI1_SCK_A*%
X130048000Y-64423400D03*
%TO.P,J1,3*%
%TO.N,/SPI1_SDI_B*%
X129028000Y-62643400D03*
%TO.P,J1,2*%
%TO.N,/SPI1_SDO_Z*%
X128008000Y-64423400D03*
D13*
%TO.P,J1,1*%
%TO.N,/SPI1_SDO_Y*%
X126988000Y-62643400D03*
%TD*%
D10*
%TO.P,TP6,1,1*%
%TO.N,/SPI1_SDI_A*%
X126695200Y-80822800D03*
%TD*%
%TO.P,TP8,1,1*%
%TO.N,GND*%
X135636000Y-80264000D03*
%TD*%
%TO.P,J4,1,Pin_1*%
%TO.N,/SPI1_SCK*%
X110263200Y-69596000D03*
D14*
%TO.P,J4,2,Pin_2*%
%TO.N,/SPI1_~{CS}*%
X110263200Y-72136000D03*
%TO.P,J4,3,Pin_3*%
%TO.N,/SPI1_SDO*%
X110263200Y-74676000D03*
%TO.P,J4,4,Pin_4*%
%TO.N,/SPI1_SDI*%
X110263200Y-77216000D03*
%TO.P,J4,5,Pin_5*%
%TO.N,GND*%
X110263200Y-79756000D03*
%TD*%
D10*
%TO.P,J3,1,Pin_1*%
%TO.N,+3V3*%
X110236000Y-85085000D03*
D14*
%TO.P,J3,2,Pin_2*%
%TO.N,GND*%
X110236000Y-87625000D03*
%TD*%
D10*
%TO.P,TP7,1,1*%
%TO.N,GND*%
X136906000Y-93726000D03*
%TD*%
D15*
%TO.N,GND*%
X146032485Y-79681888D03*
%TO.N,/SPI1_SCK_B*%
X146812000Y-79502000D03*
%TO.N,GND*%
X117856000Y-92202000D03*
%TO.N,+3V3*%
X117856000Y-90678000D03*
%TO.N,/SPI1_SCK*%
X121107200Y-67843400D03*
%TO.N,+3V3*%
X134264400Y-85674200D03*
X134391400Y-84709000D03*
X121640600Y-90601800D03*
X117805200Y-80314800D03*
X117805200Y-83286600D03*
X117779800Y-85090000D03*
%TO.N,GND*%
X136804400Y-88950800D03*
X137490200Y-74422000D03*
X128770192Y-66298189D03*
X137414000Y-83820000D03*
X128930400Y-87757000D03*
X120483976Y-67341807D03*
X120650000Y-82296000D03*
X137871200Y-84734400D03*
X133310804Y-79694351D03*
X120751600Y-88888800D03*
X136804400Y-90271600D03*
X127902130Y-67831607D03*
X121285000Y-83312000D03*
%TO.N,/SPI1_SDI_A*%
X128244600Y-68554600D03*
%TO.N,/SPI1_SDI_B*%
X128219200Y-66878200D03*
%TO.N,/SPI1_SCK*%
X132511800Y-79654400D03*
%TD*%
D16*
%TO.N,/SPI1_SCK_B*%
X133070600Y-60325000D02*
X135205000Y-62459400D01*
X135205000Y-62459400D02*
X135205000Y-63475400D01*
X132080000Y-60325000D02*
X133070600Y-60325000D01*
X146812000Y-75082400D02*
X146812000Y-79502000D01*
X135205000Y-63475400D02*
X146812000Y-75082400D01*
X131068000Y-61337000D02*
X132080000Y-60325000D01*
X131068000Y-62643400D02*
X131068000Y-61337000D01*
%TO.N,/SPI1_SCK*%
X126367288Y-67564000D02*
X132511800Y-73708512D01*
X121386600Y-67564000D02*
X126367288Y-67564000D01*
X121107200Y-67843400D02*
X121386600Y-67564000D01*
X132511800Y-73708512D02*
X132511800Y-79654400D01*
%TO.N,+3V3*%
X125988000Y-72132000D02*
X125988000Y-69243400D01*
X117805200Y-80314800D02*
X125988000Y-72132000D01*
%TO.N,/SPI1_SDI_A*%
X128244600Y-68554600D02*
X129997200Y-68554600D01*
X132088000Y-66463800D02*
X132088000Y-64423400D01*
X129997200Y-68554600D02*
X132088000Y-66463800D01*
D17*
%TO.N,/SPI1_SDI_B*%
X125526800Y-61950600D02*
X126187200Y-61290200D01*
X128219200Y-66878200D02*
X125526800Y-64185800D01*
X127674800Y-61290200D02*
X129028000Y-62643400D01*
X126187200Y-61290200D02*
X127674800Y-61290200D01*
X125526800Y-64185800D02*
X125526800Y-61950600D01*
%TD*%
%TA.AperFunction,Conductor*%
%TO.N,+3V3*%
G36*
X120467079Y-81299685D02*
G01*
X120512834Y-81352489D01*
X120522778Y-81421647D01*
X120493753Y-81485203D01*
X120440995Y-81521042D01*
X120300476Y-81570211D01*
X120147737Y-81666184D01*
X120020184Y-81793737D01*
X119924211Y-81946476D01*
X119864631Y-82116745D01*
X119864630Y-82116750D01*
X119844435Y-82295996D01*
X119844435Y-82296003D01*
X119864630Y-82475249D01*
X119864631Y-82475254D01*
X119924211Y-82645523D01*
X119970339Y-82718935D01*
X120020184Y-82798262D01*
X120147738Y-82925816D01*
X120288774Y-83014435D01*
X120300478Y-83021789D01*
X120410767Y-83060381D01*
X120467544Y-83101103D01*
X120493291Y-83166056D01*
X120493033Y-83191306D01*
X120479435Y-83311996D01*
X120479435Y-83312003D01*
X120499630Y-83491249D01*
X120499631Y-83491254D01*
X120559211Y-83661523D01*
X120624168Y-83764900D01*
X120655184Y-83814262D01*
X120782738Y-83941816D01*
X120786405Y-83944120D01*
X120934083Y-84036913D01*
X120935478Y-84037789D01*
X121021259Y-84067805D01*
X121105745Y-84097368D01*
X121105750Y-84097369D01*
X121284996Y-84117565D01*
X121285000Y-84117565D01*
X121285004Y-84117565D01*
X121464249Y-84097369D01*
X121464252Y-84097368D01*
X121464255Y-84097368D01*
X121634522Y-84037789D01*
X121787262Y-83941816D01*
X121914816Y-83814262D01*
X122010789Y-83661522D01*
X122070368Y-83491255D01*
X122072709Y-83470478D01*
X122090565Y-83312003D01*
X122090565Y-83311996D01*
X122070369Y-83132750D01*
X122070368Y-83132745D01*
X122031543Y-83021789D01*
X122010789Y-82962478D01*
X121914816Y-82809738D01*
X121787262Y-82682184D01*
X121634521Y-82586210D01*
X121524232Y-82547619D01*
X121467456Y-82506897D01*
X121441708Y-82441945D01*
X121441966Y-82416693D01*
X121442805Y-82409252D01*
X121452522Y-82323006D01*
X121455565Y-82296002D01*
X121455565Y-82295996D01*
X121435369Y-82116750D01*
X121435368Y-82116745D01*
X121375788Y-81946476D01*
X121279815Y-81793737D01*
X121152262Y-81666184D01*
X120999523Y-81570211D01*
X120859005Y-81521042D01*
X120802229Y-81480320D01*
X120776482Y-81415367D01*
X120789938Y-81346806D01*
X120838325Y-81296403D01*
X120899960Y-81280000D01*
X125220701Y-81280000D01*
X125287740Y-81299685D01*
X125333495Y-81352489D01*
X125344701Y-81404000D01*
X125344701Y-81720676D01*
X125351108Y-81780283D01*
X125401402Y-81915128D01*
X125401406Y-81915135D01*
X125487652Y-82030344D01*
X125487655Y-82030347D01*
X125602864Y-82116593D01*
X125602871Y-82116597D01*
X125737717Y-82166891D01*
X125737716Y-82166891D01*
X125744644Y-82167635D01*
X125797327Y-82173300D01*
X127593072Y-82173299D01*
X127652683Y-82166891D01*
X127787531Y-82116596D01*
X127902746Y-82030346D01*
X127988996Y-81915131D01*
X128039291Y-81780283D01*
X128045700Y-81720673D01*
X128045700Y-81404000D01*
X128065385Y-81336961D01*
X128118189Y-81291206D01*
X128169700Y-81280000D01*
X134227640Y-81280000D01*
X134294679Y-81299685D01*
X134337321Y-81348897D01*
X134337956Y-81348551D01*
X134339547Y-81351466D01*
X134340434Y-81352489D01*
X134341465Y-81354978D01*
X134342205Y-81356334D01*
X134428452Y-81471544D01*
X134428455Y-81471547D01*
X134543664Y-81557793D01*
X134543671Y-81557797D01*
X134678517Y-81608091D01*
X134678516Y-81608091D01*
X134685444Y-81608835D01*
X134738127Y-81614500D01*
X136533872Y-81614499D01*
X136593483Y-81608091D01*
X136728331Y-81557796D01*
X136843546Y-81471546D01*
X136929796Y-81356331D01*
X136929796Y-81356328D01*
X136934044Y-81348551D01*
X136936319Y-81349793D01*
X136970045Y-81304737D01*
X137035508Y-81280316D01*
X137044360Y-81280000D01*
X147965500Y-81280000D01*
X148032539Y-81299685D01*
X148078294Y-81352489D01*
X148089500Y-81404000D01*
X148089500Y-95641500D01*
X148069815Y-95708539D01*
X148017011Y-95754294D01*
X147965500Y-95765500D01*
X108828500Y-95765500D01*
X108761461Y-95745815D01*
X108715706Y-95693011D01*
X108704500Y-95641500D01*
X108704500Y-94623870D01*
X135555500Y-94623870D01*
X135555501Y-94623876D01*
X135561908Y-94683483D01*
X135612202Y-94818328D01*
X135612206Y-94818335D01*
X135698452Y-94933544D01*
X135698455Y-94933547D01*
X135813664Y-95019793D01*
X135813671Y-95019797D01*
X135948517Y-95070091D01*
X135948516Y-95070091D01*
X135955444Y-95070835D01*
X136008127Y-95076500D01*
X137803872Y-95076499D01*
X137863483Y-95070091D01*
X137998331Y-95019796D01*
X138113546Y-94933546D01*
X138199796Y-94818331D01*
X138250091Y-94683483D01*
X138256500Y-94623873D01*
X138256499Y-93070286D01*
X144445500Y-93070286D01*
X144478753Y-93280239D01*
X144544444Y-93482414D01*
X144640951Y-93671820D01*
X144765890Y-93843786D01*
X144916213Y-93994109D01*
X145088179Y-94119048D01*
X145088181Y-94119049D01*
X145088184Y-94119051D01*
X145277588Y-94215557D01*
X145479757Y-94281246D01*
X145689713Y-94314500D01*
X145689714Y-94314500D01*
X145902286Y-94314500D01*
X145902287Y-94314500D01*
X146112243Y-94281246D01*
X146314412Y-94215557D01*
X146503816Y-94119051D01*
X146525789Y-94103086D01*
X146675786Y-93994109D01*
X146675788Y-93994106D01*
X146675792Y-93994104D01*
X146826104Y-93843792D01*
X146826106Y-93843788D01*
X146826109Y-93843786D01*
X146951048Y-93671820D01*
X146951047Y-93671820D01*
X146951051Y-93671816D01*
X147047557Y-93482412D01*
X147113246Y-93280243D01*
X147146500Y-93070287D01*
X147146500Y-92857713D01*
X147113246Y-92647757D01*
X147047557Y-92445588D01*
X146951051Y-92256184D01*
X146951049Y-92256181D01*
X146951048Y-92256179D01*
X146826109Y-92084213D01*
X146675786Y-91933890D01*
X146503820Y-91808951D01*
X146314414Y-91712444D01*
X146314413Y-91712443D01*
X146314412Y-91712443D01*
X146112243Y-91646754D01*
X146112241Y-91646753D01*
X146112240Y-91646753D01*
X145950957Y-91621208D01*
X145902287Y-91613500D01*
X145689713Y-91613500D01*
X145641042Y-91621208D01*
X145479760Y-91646753D01*
X145277585Y-91712444D01*
X145088179Y-91808951D01*
X144916213Y-91933890D01*
X144765890Y-92084213D01*
X144640951Y-92256179D01*
X144544444Y-92445585D01*
X144478753Y-92647760D01*
X144445500Y-92857713D01*
X144445500Y-93070286D01*
X138256499Y-93070286D01*
X138256499Y-92828128D01*
X138250091Y-92768517D01*
X138226125Y-92704262D01*
X138199797Y-92633671D01*
X138199793Y-92633664D01*
X138113547Y-92518455D01*
X138113544Y-92518452D01*
X137998335Y-92432206D01*
X137998328Y-92432202D01*
X137863482Y-92381908D01*
X137863483Y-92381908D01*
X137803883Y-92375501D01*
X137803881Y-92375500D01*
X137803873Y-92375500D01*
X137803864Y-92375500D01*
X136008129Y-92375500D01*
X136008123Y-92375501D01*
X135948516Y-92381908D01*
X135813671Y-92432202D01*
X135813664Y-92432206D01*
X135698455Y-92518452D01*
X135698452Y-92518455D01*
X135612206Y-92633664D01*
X135612202Y-92633671D01*
X135561908Y-92768517D01*
X135555501Y-92828116D01*
X135555501Y-92828123D01*
X135555500Y-92828135D01*
X135555500Y-94623870D01*
X108704500Y-94623870D01*
X108704500Y-93070286D01*
X109901500Y-93070286D01*
X109934753Y-93280239D01*
X110000444Y-93482414D01*
X110096951Y-93671820D01*
X110221890Y-93843786D01*
X110372213Y-93994109D01*
X110544179Y-94119048D01*
X110544181Y-94119049D01*
X110544184Y-94119051D01*
X110733588Y-94215557D01*
X110935757Y-94281246D01*
X111145713Y-94314500D01*
X111145714Y-94314500D01*
X111358286Y-94314500D01*
X111358287Y-94314500D01*
X111568243Y-94281246D01*
X111770412Y-94215557D01*
X111959816Y-94119051D01*
X111964194Y-94115870D01*
X122906300Y-94115870D01*
X122906301Y-94115876D01*
X122912708Y-94175483D01*
X122963002Y-94310328D01*
X122963006Y-94310335D01*
X123049252Y-94425544D01*
X123049255Y-94425547D01*
X123164464Y-94511793D01*
X123164471Y-94511797D01*
X123299317Y-94562091D01*
X123299316Y-94562091D01*
X123306244Y-94562835D01*
X123358927Y-94568500D01*
X125154672Y-94568499D01*
X125214283Y-94562091D01*
X125349131Y-94511796D01*
X125464346Y-94425546D01*
X125550596Y-94310331D01*
X125600891Y-94175483D01*
X125607300Y-94115873D01*
X125607299Y-92320128D01*
X125600891Y-92260517D01*
X125550596Y-92125669D01*
X125550595Y-92125668D01*
X125550593Y-92125664D01*
X125464347Y-92010455D01*
X125464344Y-92010452D01*
X125349135Y-91924206D01*
X125349128Y-91924202D01*
X125214282Y-91873908D01*
X125214283Y-91873908D01*
X125154683Y-91867501D01*
X125154681Y-91867500D01*
X125154673Y-91867500D01*
X125154664Y-91867500D01*
X123358929Y-91867500D01*
X123358923Y-91867501D01*
X123299316Y-91873908D01*
X123164471Y-91924202D01*
X123164464Y-91924206D01*
X123049255Y-92010452D01*
X123049252Y-92010455D01*
X122963006Y-92125664D01*
X122963002Y-92125671D01*
X122912708Y-92260517D01*
X122906301Y-92320116D01*
X122906301Y-92320123D01*
X122906300Y-92320135D01*
X122906300Y-94115870D01*
X111964194Y-94115870D01*
X111981789Y-94103086D01*
X112131786Y-93994109D01*
X112131788Y-93994106D01*
X112131792Y-93994104D01*
X112282104Y-93843792D01*
X112282106Y-93843788D01*
X112282109Y-93843786D01*
X112407048Y-93671820D01*
X112407047Y-93671820D01*
X112407051Y-93671816D01*
X112503557Y-93482412D01*
X112569246Y-93280243D01*
X112602500Y-93070287D01*
X112602500Y-92857713D01*
X112569246Y-92647757D01*
X112503557Y-92445588D01*
X112407051Y-92256184D01*
X112407049Y-92256181D01*
X112407048Y-92256179D01*
X112367687Y-92202003D01*
X117050435Y-92202003D01*
X117070630Y-92381249D01*
X117070631Y-92381254D01*
X117130211Y-92551523D01*
X117190681Y-92647760D01*
X117226184Y-92704262D01*
X117353738Y-92831816D01*
X117506478Y-92927789D01*
X117676745Y-92987368D01*
X117676750Y-92987369D01*
X117855996Y-93007565D01*
X117856000Y-93007565D01*
X117856004Y-93007565D01*
X118035249Y-92987369D01*
X118035252Y-92987368D01*
X118035255Y-92987368D01*
X118205522Y-92927789D01*
X118358262Y-92831816D01*
X118485816Y-92704262D01*
X118581789Y-92551522D01*
X118641368Y-92381255D01*
X118641369Y-92381249D01*
X118661565Y-92202003D01*
X118661565Y-92201996D01*
X118641369Y-92022750D01*
X118641368Y-92022745D01*
X118589288Y-91873909D01*
X118581789Y-91852478D01*
X118485816Y-91699738D01*
X118358262Y-91572184D01*
X118205523Y-91476211D01*
X118035254Y-91416631D01*
X118035249Y-91416630D01*
X117856004Y-91396435D01*
X117855996Y-91396435D01*
X117676750Y-91416630D01*
X117676745Y-91416631D01*
X117506476Y-91476211D01*
X117353737Y-91572184D01*
X117226184Y-91699737D01*
X117130211Y-91852476D01*
X117070631Y-92022745D01*
X117070630Y-92022750D01*
X117050435Y-92201996D01*
X117050435Y-92202003D01*
X112367687Y-92202003D01*
X112282109Y-92084213D01*
X112131786Y-91933890D01*
X111959820Y-91808951D01*
X111770414Y-91712444D01*
X111770413Y-91712443D01*
X111770412Y-91712443D01*
X111568243Y-91646754D01*
X111568241Y-91646753D01*
X111568240Y-91646753D01*
X111406957Y-91621208D01*
X111358287Y-91613500D01*
X111145713Y-91613500D01*
X111097042Y-91621208D01*
X110935760Y-91646753D01*
X110733585Y-91712444D01*
X110544179Y-91808951D01*
X110372213Y-91933890D01*
X110221890Y-92084213D01*
X110096951Y-92256179D01*
X110000444Y-92445585D01*
X109934753Y-92647760D01*
X109901500Y-92857713D01*
X109901500Y-93070286D01*
X108704500Y-93070286D01*
X108704500Y-91271070D01*
X127275100Y-91271070D01*
X127275101Y-91271076D01*
X127281508Y-91330683D01*
X127331802Y-91465528D01*
X127331806Y-91465535D01*
X127418052Y-91580744D01*
X127418055Y-91580747D01*
X127533264Y-91666993D01*
X127533271Y-91666997D01*
X127668117Y-91717291D01*
X127668116Y-91717291D01*
X127675044Y-91718035D01*
X127727727Y-91723700D01*
X129523472Y-91723699D01*
X129583083Y-91717291D01*
X129717931Y-91666996D01*
X129833146Y-91580746D01*
X129919396Y-91465531D01*
X129969691Y-91330683D01*
X129976100Y-91271073D01*
X129976099Y-90271603D01*
X135998835Y-90271603D01*
X136019030Y-90450849D01*
X136019031Y-90450854D01*
X136078611Y-90621123D01*
X136174584Y-90773862D01*
X136302138Y-90901416D01*
X136454878Y-90997389D01*
X136625145Y-91056968D01*
X136625150Y-91056969D01*
X136804396Y-91077165D01*
X136804400Y-91077165D01*
X136804404Y-91077165D01*
X136983649Y-91056969D01*
X136983652Y-91056968D01*
X136983655Y-91056968D01*
X137153922Y-90997389D01*
X137306662Y-90901416D01*
X137434216Y-90773862D01*
X137530189Y-90621122D01*
X137589768Y-90450855D01*
X137609965Y-90271600D01*
X137589768Y-90092345D01*
X137530189Y-89922078D01*
X137434216Y-89769338D01*
X137363759Y-89698881D01*
X137330274Y-89637558D01*
X137335258Y-89567866D01*
X137363759Y-89523519D01*
X137368663Y-89518615D01*
X137434216Y-89453062D01*
X137530189Y-89300322D01*
X137589768Y-89130055D01*
X137596754Y-89068054D01*
X137609965Y-88950803D01*
X137609965Y-88950796D01*
X137589769Y-88771550D01*
X137589768Y-88771545D01*
X137565118Y-88701099D01*
X137530189Y-88601278D01*
X137434216Y-88448538D01*
X137306662Y-88320984D01*
X137286129Y-88308082D01*
X137191258Y-88248470D01*
X144470900Y-88248470D01*
X144470901Y-88248476D01*
X144477308Y-88308083D01*
X144527602Y-88442928D01*
X144527606Y-88442935D01*
X144613852Y-88558144D01*
X144613855Y-88558147D01*
X144729064Y-88644393D01*
X144729071Y-88644397D01*
X144863917Y-88694691D01*
X144863916Y-88694691D01*
X144870844Y-88695435D01*
X144923527Y-88701100D01*
X146719272Y-88701099D01*
X146778883Y-88694691D01*
X146913731Y-88644396D01*
X147028946Y-88558146D01*
X147115196Y-88442931D01*
X147165491Y-88308083D01*
X147171900Y-88248473D01*
X147171899Y-86452728D01*
X147165491Y-86393117D01*
X147159983Y-86378350D01*
X147115197Y-86258271D01*
X147115193Y-86258264D01*
X147028947Y-86143055D01*
X147028944Y-86143052D01*
X146913735Y-86056806D01*
X146913728Y-86056802D01*
X146778882Y-86006508D01*
X146778883Y-86006508D01*
X146719283Y-86000101D01*
X146719281Y-86000100D01*
X146719273Y-86000100D01*
X146719264Y-86000100D01*
X144923529Y-86000100D01*
X144923523Y-86000101D01*
X144863916Y-86006508D01*
X144729071Y-86056802D01*
X144729064Y-86056806D01*
X144613855Y-86143052D01*
X144613852Y-86143055D01*
X144527606Y-86258264D01*
X144527602Y-86258271D01*
X144477308Y-86393117D01*
X144471802Y-86444337D01*
X144470901Y-86452723D01*
X144470900Y-86452735D01*
X144470900Y-88248470D01*
X137191258Y-88248470D01*
X137153923Y-88225011D01*
X136983654Y-88165431D01*
X136983649Y-88165430D01*
X136804404Y-88145235D01*
X136804396Y-88145235D01*
X136625150Y-88165430D01*
X136625145Y-88165431D01*
X136454876Y-88225011D01*
X136302137Y-88320984D01*
X136174584Y-88448537D01*
X136078611Y-88601276D01*
X136019031Y-88771545D01*
X136019030Y-88771550D01*
X135998835Y-88950796D01*
X135998835Y-88950803D01*
X136019030Y-89130049D01*
X136019031Y-89130054D01*
X136078611Y-89300323D01*
X136174584Y-89453062D01*
X136245041Y-89523519D01*
X136278526Y-89584842D01*
X136273542Y-89654534D01*
X136245041Y-89698881D01*
X136174584Y-89769337D01*
X136078611Y-89922076D01*
X136019031Y-90092345D01*
X136019030Y-90092350D01*
X135998835Y-90271596D01*
X135998835Y-90271603D01*
X129976099Y-90271603D01*
X129976099Y-89475328D01*
X129969691Y-89415717D01*
X129960495Y-89391062D01*
X129919397Y-89280871D01*
X129919393Y-89280864D01*
X129833147Y-89165655D01*
X129833144Y-89165652D01*
X129717935Y-89079406D01*
X129717928Y-89079402D01*
X129583082Y-89029108D01*
X129583083Y-89029108D01*
X129523483Y-89022701D01*
X129523481Y-89022700D01*
X129523473Y-89022700D01*
X129523464Y-89022700D01*
X127727729Y-89022700D01*
X127727723Y-89022701D01*
X127668116Y-89029108D01*
X127533271Y-89079402D01*
X127533264Y-89079406D01*
X127418055Y-89165652D01*
X127418052Y-89165655D01*
X127331806Y-89280864D01*
X127331802Y-89280871D01*
X127281508Y-89415717D01*
X127275101Y-89475316D01*
X127275101Y-89475323D01*
X127275100Y-89475335D01*
X127275100Y-91271070D01*
X108704500Y-91271070D01*
X108704500Y-88069171D01*
X108724185Y-88002132D01*
X108776989Y-87956377D01*
X108846147Y-87946433D01*
X108909703Y-87975458D01*
X108947477Y-88034236D01*
X108948275Y-88037078D01*
X108962094Y-88088655D01*
X108962096Y-88088659D01*
X108962097Y-88088663D01*
X109036618Y-88248473D01*
X109061965Y-88302830D01*
X109061967Y-88302834D01*
X109160063Y-88442928D01*
X109197505Y-88496401D01*
X109364599Y-88663495D01*
X109461384Y-88731265D01*
X109558165Y-88799032D01*
X109558167Y-88799033D01*
X109558170Y-88799035D01*
X109772337Y-88898903D01*
X110000592Y-88960063D01*
X110188918Y-88976539D01*
X110235999Y-88980659D01*
X110236000Y-88980659D01*
X110236001Y-88980659D01*
X110275234Y-88977226D01*
X110471408Y-88960063D01*
X110699663Y-88898903D01*
X110721322Y-88888803D01*
X119946035Y-88888803D01*
X119966230Y-89068049D01*
X119966231Y-89068054D01*
X120025811Y-89238323D01*
X120121784Y-89391062D01*
X120249338Y-89518616D01*
X120402078Y-89614589D01*
X120572345Y-89674168D01*
X120572350Y-89674169D01*
X120751596Y-89694365D01*
X120751600Y-89694365D01*
X120751604Y-89694365D01*
X120930849Y-89674169D01*
X120930852Y-89674168D01*
X120930855Y-89674168D01*
X121101122Y-89614589D01*
X121253862Y-89518616D01*
X121381416Y-89391062D01*
X121477389Y-89238322D01*
X121536968Y-89068055D01*
X121541356Y-89029109D01*
X121557165Y-88888803D01*
X121557165Y-88888796D01*
X121536969Y-88709550D01*
X121536968Y-88709545D01*
X121485537Y-88562565D01*
X121477389Y-88539278D01*
X121381416Y-88386538D01*
X121253862Y-88258984D01*
X121237120Y-88248464D01*
X121101123Y-88163011D01*
X120930854Y-88103431D01*
X120930849Y-88103430D01*
X120751604Y-88083235D01*
X120751596Y-88083235D01*
X120572350Y-88103430D01*
X120572345Y-88103431D01*
X120402076Y-88163011D01*
X120249337Y-88258984D01*
X120121784Y-88386537D01*
X120025811Y-88539276D01*
X119966231Y-88709545D01*
X119966230Y-88709550D01*
X119946035Y-88888796D01*
X119946035Y-88888803D01*
X110721322Y-88888803D01*
X110913830Y-88799035D01*
X111107401Y-88663495D01*
X111274495Y-88496401D01*
X111410035Y-88302830D01*
X111509903Y-88088663D01*
X111571063Y-87860408D01*
X111580110Y-87757003D01*
X128124835Y-87757003D01*
X128145030Y-87936249D01*
X128145031Y-87936254D01*
X128204611Y-88106523D01*
X128279063Y-88225011D01*
X128300584Y-88259262D01*
X128428138Y-88386816D01*
X128580878Y-88482789D01*
X128619782Y-88496402D01*
X128751145Y-88542368D01*
X128751150Y-88542369D01*
X128930396Y-88562565D01*
X128930400Y-88562565D01*
X128930404Y-88562565D01*
X129109649Y-88542369D01*
X129109652Y-88542368D01*
X129109655Y-88542368D01*
X129279922Y-88482789D01*
X129432662Y-88386816D01*
X129560216Y-88259262D01*
X129656189Y-88106522D01*
X129715768Y-87936255D01*
X129715769Y-87936249D01*
X129735965Y-87757003D01*
X129735965Y-87756996D01*
X129715769Y-87577750D01*
X129715768Y-87577745D01*
X129656188Y-87407476D01*
X129590611Y-87303111D01*
X129560216Y-87254738D01*
X129432662Y-87127184D01*
X129279923Y-87031211D01*
X129109654Y-86971631D01*
X129109649Y-86971630D01*
X128930404Y-86951435D01*
X128930396Y-86951435D01*
X128751150Y-86971630D01*
X128751145Y-86971631D01*
X128580876Y-87031211D01*
X128428137Y-87127184D01*
X128300584Y-87254737D01*
X128204611Y-87407476D01*
X128145031Y-87577745D01*
X128145030Y-87577750D01*
X128124835Y-87756996D01*
X128124835Y-87757003D01*
X111580110Y-87757003D01*
X111591659Y-87625000D01*
X111571063Y-87389592D01*
X111509903Y-87161337D01*
X111410035Y-86947171D01*
X111274495Y-86753599D01*
X111152179Y-86631283D01*
X111118696Y-86569963D01*
X111123680Y-86500271D01*
X111165551Y-86444337D01*
X111196529Y-86427422D01*
X111328086Y-86378354D01*
X111328093Y-86378350D01*
X111443187Y-86292190D01*
X111443190Y-86292187D01*
X111529350Y-86177093D01*
X111529354Y-86177086D01*
X111579596Y-86042379D01*
X111579598Y-86042372D01*
X111582727Y-86013270D01*
X127732300Y-86013270D01*
X127732301Y-86013276D01*
X127738708Y-86072883D01*
X127789002Y-86207728D01*
X127789006Y-86207735D01*
X127875252Y-86322944D01*
X127875255Y-86322947D01*
X127990464Y-86409193D01*
X127990471Y-86409197D01*
X128125317Y-86459491D01*
X128125316Y-86459491D01*
X128132244Y-86460235D01*
X128184927Y-86465900D01*
X129980672Y-86465899D01*
X130040283Y-86459491D01*
X130175131Y-86409196D01*
X130290346Y-86322946D01*
X130376596Y-86207731D01*
X130426891Y-86072883D01*
X130433300Y-86013273D01*
X130433299Y-84217528D01*
X130426891Y-84157917D01*
X130406998Y-84104582D01*
X130376597Y-84023071D01*
X130376593Y-84023064D01*
X130290347Y-83907855D01*
X130290344Y-83907852D01*
X130175135Y-83821606D01*
X130175128Y-83821602D01*
X130170841Y-83820003D01*
X136608435Y-83820003D01*
X136628630Y-83999249D01*
X136628631Y-83999254D01*
X136688211Y-84169523D01*
X136727555Y-84232138D01*
X136784184Y-84322262D01*
X136911738Y-84449816D01*
X137019433Y-84517485D01*
X137065723Y-84569819D01*
X137076680Y-84636361D01*
X137065635Y-84734395D01*
X137065635Y-84734403D01*
X137085830Y-84913649D01*
X137085831Y-84913654D01*
X137145411Y-85083923D01*
X137225259Y-85211000D01*
X137241384Y-85236662D01*
X137368938Y-85364216D01*
X137521678Y-85460189D01*
X137592867Y-85485099D01*
X137691945Y-85519768D01*
X137691950Y-85519769D01*
X137871196Y-85539965D01*
X137871200Y-85539965D01*
X137871204Y-85539965D01*
X138050449Y-85519769D01*
X138050452Y-85519768D01*
X138050455Y-85519768D01*
X138220722Y-85460189D01*
X138373462Y-85364216D01*
X138501016Y-85236662D01*
X138596989Y-85083922D01*
X138656568Y-84913655D01*
X138659007Y-84892007D01*
X138676765Y-84734403D01*
X138676765Y-84734396D01*
X138656569Y-84555150D01*
X138656568Y-84555145D01*
X138642405Y-84514670D01*
X141930900Y-84514670D01*
X141930901Y-84514676D01*
X141937308Y-84574283D01*
X141987602Y-84709128D01*
X141987606Y-84709135D01*
X142073852Y-84824344D01*
X142073855Y-84824347D01*
X142189064Y-84910593D01*
X142189071Y-84910597D01*
X142323917Y-84960891D01*
X142323916Y-84960891D01*
X142330844Y-84961635D01*
X142383527Y-84967300D01*
X144179272Y-84967299D01*
X144238883Y-84960891D01*
X144373731Y-84910596D01*
X144488946Y-84824346D01*
X144575196Y-84709131D01*
X144625491Y-84574283D01*
X144631900Y-84514673D01*
X144631899Y-82718928D01*
X144625491Y-82659317D01*
X144620346Y-82645523D01*
X144575197Y-82524471D01*
X144575193Y-82524464D01*
X144488947Y-82409255D01*
X144488944Y-82409252D01*
X144373735Y-82323006D01*
X144373728Y-82323002D01*
X144238882Y-82272708D01*
X144238883Y-82272708D01*
X144179283Y-82266301D01*
X144179281Y-82266300D01*
X144179273Y-82266300D01*
X144179264Y-82266300D01*
X142383529Y-82266300D01*
X142383523Y-82266301D01*
X142323916Y-82272708D01*
X142189071Y-82323002D01*
X142189064Y-82323006D01*
X142073855Y-82409252D01*
X142073852Y-82409255D01*
X141987606Y-82524464D01*
X141987602Y-82524471D01*
X141937308Y-82659317D01*
X141934850Y-82682184D01*
X141930901Y-82718923D01*
X141930900Y-82718935D01*
X141930900Y-84514670D01*
X138642405Y-84514670D01*
X138596988Y-84384876D01*
X138501015Y-84232137D01*
X138373460Y-84104582D01*
X138265766Y-84036913D01*
X138219476Y-83984579D01*
X138208519Y-83918036D01*
X138209667Y-83907852D01*
X138219384Y-83821604D01*
X138219565Y-83820002D01*
X138219565Y-83819996D01*
X138199369Y-83640750D01*
X138199368Y-83640745D01*
X138139788Y-83470476D01*
X138043815Y-83317737D01*
X137916262Y-83190184D01*
X137763523Y-83094211D01*
X137593254Y-83034631D01*
X137593249Y-83034630D01*
X137414004Y-83014435D01*
X137413996Y-83014435D01*
X137234750Y-83034630D01*
X137234745Y-83034631D01*
X137064476Y-83094211D01*
X136911737Y-83190184D01*
X136784184Y-83317737D01*
X136688211Y-83470476D01*
X136628631Y-83640745D01*
X136628630Y-83640750D01*
X136608435Y-83819996D01*
X136608435Y-83820003D01*
X130170841Y-83820003D01*
X130040282Y-83771308D01*
X130040283Y-83771308D01*
X129980683Y-83764901D01*
X129980681Y-83764900D01*
X129980673Y-83764900D01*
X129980664Y-83764900D01*
X128184929Y-83764900D01*
X128184923Y-83764901D01*
X128125316Y-83771308D01*
X127990471Y-83821602D01*
X127990464Y-83821606D01*
X127875255Y-83907852D01*
X127875252Y-83907855D01*
X127789006Y-84023064D01*
X127789002Y-84023071D01*
X127738708Y-84157917D01*
X127732301Y-84217516D01*
X127732301Y-84217523D01*
X127732300Y-84217535D01*
X127732300Y-86013270D01*
X111582727Y-86013270D01*
X111585999Y-85982844D01*
X111586000Y-85982827D01*
X111586000Y-85335000D01*
X110669012Y-85335000D01*
X110701925Y-85277993D01*
X110736000Y-85150826D01*
X110736000Y-85019174D01*
X110701925Y-84892007D01*
X110669012Y-84835000D01*
X111586000Y-84835000D01*
X111586000Y-84187172D01*
X111585999Y-84187155D01*
X111579598Y-84127627D01*
X111579596Y-84127620D01*
X111529354Y-83992913D01*
X111529350Y-83992906D01*
X111443190Y-83877812D01*
X111443187Y-83877809D01*
X111328093Y-83791649D01*
X111328086Y-83791645D01*
X111193379Y-83741403D01*
X111193372Y-83741401D01*
X111133844Y-83735000D01*
X110486000Y-83735000D01*
X110486000Y-84651988D01*
X110428993Y-84619075D01*
X110301826Y-84585000D01*
X110170174Y-84585000D01*
X110043007Y-84619075D01*
X109986000Y-84651988D01*
X109986000Y-83735000D01*
X109338155Y-83735000D01*
X109278627Y-83741401D01*
X109278620Y-83741403D01*
X109143913Y-83791645D01*
X109143906Y-83791649D01*
X109028812Y-83877809D01*
X109028809Y-83877812D01*
X108942649Y-83992906D01*
X108938396Y-84000696D01*
X108935822Y-83999290D01*
X108902803Y-84043393D01*
X108837336Y-84067805D01*
X108769064Y-84052947D01*
X108719663Y-84003538D01*
X108704500Y-83944120D01*
X108704500Y-81404000D01*
X108724185Y-81336961D01*
X108776989Y-81291206D01*
X108828500Y-81280000D01*
X120400040Y-81280000D01*
X120467079Y-81299685D01*
G37*
%TD.AperFunction*%
%TD*%
M02*
